<svg width="79" height="165" viewBox="0 0 79 165" fill="none" xmlns="http://www.w3.org/2000/svg">
<path d="M49.3879 6.05891C50.8011 4.74012 50.8777 2.52536 49.5589 1.11212C48.2401 -0.301129 46.0254 -0.377701 44.6121 0.94109L49.3879 6.05891ZM78.268 138.142C79.4509 136.613 79.1704 134.415 77.6415 133.232L52.7275 113.956C51.1986 112.774 49.0004 113.054 47.8175 114.583C46.6347 116.112 46.9152 118.31 48.444 119.493L70.5899 136.627L53.4562 158.772C52.2734 160.301 52.5539 162.499 54.0828 163.682C55.6116 164.865 57.8099 164.585 58.9927 163.056L78.268 138.142ZM44.6121 0.94109C0.093904 42.4839 -6.46366 78.8256 6.44039 104.495C19.1023 129.682 49.7906 142.809 75.9428 139.472L75.0568 132.528C51.3703 135.551 23.8182 123.478 12.6946 101.351C1.81315 79.705 5.92505 46.6169 49.3879 6.05891L44.6121 0.94109Z" fill="#453831"/>
</svg>
