<svg width="64" height="64" viewBox="0 0 64 64" fill="none" xmlns="http://www.w3.org/2000/svg">
<path d="M64 32C64 49.672 49.672 64 32 64C14.328 64 0 49.672 0 32C0 14.328 14.328 0 32 0C49.672 0 64 14.328 64 32Z" fill="#453831"/>
<g clip-path="url(#clip0_507_112988)">
<path d="M27.6629 12.4082L15.1921 15.7498C11.7482 16.6726 9.72884 20.3038 10.6818 23.8604L16.8934 47.0422C17.8463 50.5987 21.4107 52.7338 24.8547 51.811L37.3255 48.4695C40.7694 47.5467 42.7888 43.9154 41.8358 40.3589L35.6242 17.1771C34.6713 13.6205 31.1069 11.4854 27.6629 12.4082Z" fill="#453831"/>
<path fill-rule="evenodd" clip-rule="evenodd" d="M28.3531 14.984L15.8823 18.3256C13.9384 18.8464 12.6647 20.9574 13.2576 23.1702L19.4692 46.352C20.0621 48.5647 22.2206 49.7561 24.1645 49.2352L36.6353 45.8937C38.5792 45.3728 39.8529 43.2618 39.26 41.0491L33.0484 17.8672C32.4555 15.6545 30.297 14.4632 28.3531 14.984ZM15.1921 15.7498L27.6629 12.4082C31.1069 11.4854 34.6713 13.6205 35.6242 17.1771L41.8358 40.3589C42.7888 43.9154 40.7694 47.5467 37.3255 48.4695L24.8547 51.811C21.4107 52.7338 17.8463 50.5987 16.8934 47.0422L10.6818 23.8604C9.72884 20.3038 11.7482 16.6726 15.1921 15.7498Z" fill="#FCDDCE"/>
<path d="M30.9047 25.4051C29.8266 25.2792 28.8322 24.726 28.1334 23.8635C28.0971 23.8191 28.0493 23.7863 27.9958 23.7687C27.9422 23.7512 27.8851 23.7498 27.8313 23.7647L20.7298 25.6675C20.6757 25.6814 20.6269 25.7111 20.5892 25.7531C20.5515 25.795 20.5267 25.8475 20.5176 25.9041C20.3437 27.0005 19.7591 27.9768 18.8884 28.6249C18.8429 28.6585 18.8087 28.7056 18.79 28.7601C18.7714 28.8145 18.7692 28.8737 18.7839 28.93L20.2902 34.5517C20.894 36.8051 22.8051 38.5385 25.158 38.9678L28.1177 39.5067C28.16 39.5148 28.2035 39.5131 28.2449 39.502C28.2865 39.4907 28.3251 39.4704 28.3582 39.4423L30.6503 37.4962C32.4741 35.9477 33.2624 33.491 32.6586 31.2376L31.1523 25.6159C31.1364 25.5594 31.1041 25.5089 31.0599 25.4712C31.0157 25.4336 30.9615 25.4105 30.9047 25.4051V25.4051Z" fill="#FCDDCE"/>
</g>
<g clip-path="url(#clip1_507_112988)">
<path d="M49.7025 15.5312L37.2316 12.1897C33.7877 11.2669 30.2233 13.402 29.2703 16.9585L23.0588 40.1403C22.1058 43.6969 24.1251 47.3281 27.5691 48.2509L40.0399 51.5925C43.4838 52.5153 47.0482 50.3802 48.0012 46.8236L54.2128 23.6418C55.1657 20.0853 53.1464 16.454 49.7025 15.5312Z" fill="#FCDDCE"/>
<path fill-rule="evenodd" clip-rule="evenodd" d="M49.0123 18.107L36.5415 14.7655C34.5976 14.2446 32.439 15.436 31.8461 17.6487L25.6346 40.8305C25.0417 43.0432 26.3154 45.1542 28.2592 45.6751L40.7301 49.0167C42.6739 49.5375 44.8325 48.3462 45.4254 46.1334L51.637 22.9516C52.2298 20.7389 50.9562 18.6279 49.0123 18.107ZM37.2316 12.1897L49.7025 15.5312C53.1464 16.454 55.1657 20.0853 54.2128 23.6418L48.0012 46.8236C47.0482 50.3802 43.4838 52.5153 40.0399 51.5925L27.5691 48.2509C24.1251 47.3281 22.1058 43.6969 23.0588 40.1403L29.2703 16.9585C30.2233 13.402 33.7877 11.2669 37.2316 12.1897Z" fill="#453831"/>
<path d="M46.0116 28.4077C45.1409 27.7596 44.5563 26.7834 44.3824 25.687C44.3731 25.6304 44.3482 25.5781 44.3106 25.5361C44.2729 25.4942 44.2242 25.4644 44.1702 25.4504L37.0687 23.5476C37.0149 23.5325 36.9577 23.5338 36.9041 23.5513C36.8505 23.5688 36.8028 23.6018 36.7666 23.6463C36.0678 24.5089 35.0734 25.0621 33.9953 25.1879C33.9391 25.1944 33.8859 25.218 33.8425 25.2558C33.7991 25.2937 33.7677 25.3439 33.7522 25.3999L32.2459 31.0217C31.6421 33.275 32.4305 35.7318 34.2535 37.2801L36.5472 39.2265C36.5798 39.2547 36.6183 39.275 36.6597 39.2861C36.7014 39.2971 36.745 39.2988 36.7877 39.291L39.7458 38.7517C42.0994 38.3226 44.0105 36.5891 44.6143 34.3358L46.1207 28.714C46.1351 28.6571 46.1324 28.5973 46.1129 28.5426C46.0935 28.4879 46.0581 28.4408 46.0116 28.4077V28.4077Z" fill="#453831"/>
</g>
<defs>
<clipPath id="clip0_507_112988">
<rect width="26.6667" height="37.3333" fill="white" transform="translate(8.9563 17.4207) rotate(-15)"/>
</clipPath>
<clipPath id="clip1_507_112988">
<rect width="26.6667" height="37.3333" fill="white" transform="translate(30.9958 10.5188) rotate(15)"/>
</clipPath>
</defs>
</svg>
