<svg width="64" height="64" viewBox="0 0 64 64" fill="none" xmlns="http://www.w3.org/2000/svg">
<g clip-path="url(#clip0_507_112989)">
<path d="M64 32C64 49.672 49.672 64 32 64C14.328 64 0 49.672 0 32C0 14.328 14.328 0 32 0C49.672 0 64 14.328 64 32Z" fill="#FCDDCE"/>
<path fill-rule="evenodd" clip-rule="evenodd" d="M32 61.3333C48.1992 61.3333 61.3333 48.1992 61.3333 32C61.3333 15.8008 48.1992 2.66667 32 2.66667C15.8008 2.66667 2.66667 15.8008 2.66667 32C2.66667 48.1992 15.8008 61.3333 32 61.3333ZM32 64C49.672 64 64 49.672 64 32C64 14.328 49.672 0 32 0C14.328 0 0 14.328 0 32C0 49.672 14.328 64 32 64Z" fill="#453831"/>
<path d="M20.4807 45.9772L20.4812 48.7858L19.025 48.7861L19.0257 53.3334L39.7168 53.3306H43.7812V48.7754H42.4698L42.4693 45.9743H41.2054C41.3004 45.3292 41.3786 44.6902 41.3919 44.0512C41.404 43.3659 41.327 42.7031 41.1806 42.0586C40.8068 40.4119 39.9804 38.8855 39.0316 37.413C37.3609 34.8326 35.1665 32.6523 32.8937 30.5256C32.6501 30.308 32.4198 30.0766 32.026 29.6966C34.0182 30.1239 35.7184 29.7344 37.3884 29.2009C38.593 28.8191 39.5325 29.1347 40.3918 29.9239C42.2074 31.6169 44.0145 31.8924 46.3019 30.8793C47.2711 30.444 48.1735 28.7857 47.9715 27.8219C47.9065 27.5139 47.7646 27.1523 47.8729 26.8826C48.2232 25.9462 47.6841 25.4652 46.975 24.938C45.3264 23.7077 43.6976 22.4437 42.1424 21.1199C41.3598 20.4549 40.7706 19.6045 40.0698 18.8614C39.7677 18.5441 39.4223 18.2286 39.0285 18.0186C38.5414 17.7551 37.9823 17.6096 37.4517 17.4135C36.307 16.9861 35.9783 16.862 35.883 16.2368L35.8979 16.0759C35.9486 15.5219 35.5484 15.0176 34.9586 14.8926L34.151 14.7215L34.1503 10.6667H34.1002C31.6159 10.6672 29.574 12.4052 29.3358 14.6303C24.0635 16.096 20.9541 19.4601 19.3898 24.1848C17.9789 28.4345 18.8304 32.5229 20.2527 36.6127C21.114 39.0952 21.8737 41.6251 22.4915 44.1734C22.6267 44.7449 22.5983 45.3581 22.5334 45.9771L20.4807 45.9772ZM36.9019 22.1733C36.3239 22.1733 35.8555 21.743 35.8555 21.2122C35.8555 20.6815 36.3239 20.2511 36.9019 20.2511C37.4799 20.2511 37.9483 20.6814 37.9483 21.2122C37.9483 21.7431 37.4799 22.1733 36.9019 22.1733Z" fill="#453831"/>
</g>
<defs>
<clipPath id="clip0_507_112989">
<rect width="64" height="64" fill="white"/>
</clipPath>
</defs>
</svg>
