<svg width="80" height="80" viewBox="0 0 80 80" fill="none" xmlns="http://www.w3.org/2000/svg">
<path d="M70 40C70 56.5685 56.5685 70 40 70C23.4315 70 10 56.5685 10 40C10 23.4315 23.4315 10 40 10C56.5685 10 70 23.4315 70 40Z" fill="#FCDDCE"/>
<path fill-rule="evenodd" clip-rule="evenodd" d="M40 67C54.9117 67 67 54.9117 67 40C67 25.0883 54.9117 13 40 13C25.0883 13 13 25.0883 13 40C13 54.9117 25.0883 67 40 67ZM40 70C56.5685 70 70 56.5685 70 40C70 23.4315 56.5685 10 40 10C23.4315 10 10 23.4315 10 40C10 56.5685 23.4315 70 40 70Z" fill="#453831"/>
<path d="M56.574 29.8668C55.8019 28.535 54.7432 27.4053 53.4802 26.5652C52.2172 25.7252 50.7839 25.1975 49.2917 25.0232C48.0899 24.9413 46.8834 25.0767 45.7265 25.4232C43.802 26.0415 42.01 27.0358 40.4479 28.3523L39.9919 28.7666L39.826 28.6237C39.0092 27.9384 38.1404 27.3221 37.2282 26.7806C35.2691 25.5306 32.9918 24.9183 30.692 25.0232C30.0252 25.0778 29.3667 25.212 28.7298 25.4232C27.2885 25.9515 25.9904 26.8283 24.9435 27.9808C24.3807 28.5626 23.8675 29.1936 23.4097 29.8668C18.1586 37.6823 28.8127 49.5127 35.1277 55.4565C35.9016 56.1995 36.6201 56.8853 37.2282 57.3711L38.458 58.4427C38.894 58.8018 39.4345 58.9982 39.9919 58.9999C40.5504 59.0051 41.0931 58.808 41.5257 58.4427C45.7265 54.8993 63.0273 39.3968 56.574 29.8668Z" fill="#453831"/>
</svg>
