<svg width="64" height="64" viewBox="0 0 64 64" fill="none" xmlns="http://www.w3.org/2000/svg">
<path d="M64 32C64 49.672 49.672 64 32 64C14.328 64 0 49.672 0 32C0 14.328 14.328 0 32 0C49.672 0 64 14.328 64 32Z" fill="#453831"/>
<path fill-rule="evenodd" clip-rule="evenodd" d="M32 61.3333C48.1992 61.3333 61.3333 48.1992 61.3333 32C61.3333 15.8008 48.1992 2.66667 32 2.66667C15.8008 2.66667 2.66667 15.8008 2.66667 32C2.66667 48.1992 15.8008 61.3333 32 61.3333ZM32 64C49.672 64 64 49.672 64 32C64 14.328 49.672 0 32 0C14.328 0 0 14.328 0 32C0 49.672 14.328 64 32 64Z" fill="#453831"/>
<path d="M21.1691 39.2C20.2691 37.2286 19.6763 35.8643 19.3906 35.1071V39.2214C19.3906 40.1071 19.3977 40.7143 19.412 41.0429C19.0263 41.1571 18.6049 41.2143 18.1477 41.2143C18.0049 41.2143 17.7906 41.2 17.5049 41.1714C17.1906 41.1429 16.962 41.1286 16.8191 41.1286L15.7691 41.0857V39.4786C15.7691 38.5643 15.7549 37.2643 15.7263 35.5786C15.712 34.7357 15.7049 33.4571 15.7049 31.7429C15.7049 29.4429 15.7691 27.5143 15.8977 25.9571C16.2834 25.8571 16.712 25.8071 17.1834 25.8071C17.4977 25.8071 17.8763 25.8357 18.3191 25.8929C18.7763 25.95 19.0906 26.0357 19.262 26.15C19.462 26.5214 19.7049 27.0429 19.9906 27.7143C20.2906 28.3714 20.5763 29.0286 20.8477 29.6857L21.7049 31.6571C21.6763 30.6571 21.662 29.4786 21.662 28.1214C21.662 27.0214 21.6691 26.2643 21.6834 25.85C22.2691 25.7357 22.8906 25.6786 23.5477 25.6786C24.1049 25.6786 24.6834 25.7429 25.2834 25.8714V41.0643C25.2406 41.0643 25.1549 41.0857 25.0263 41.1286C24.8834 41.1857 24.6334 41.2143 24.2763 41.2143C24.2049 41.2286 23.8263 41.2071 23.1406 41.15C22.9691 41.1357 22.7477 41.1214 22.4763 41.1071C22.2191 41.0929 22.0691 41.0929 22.0263 41.1071L21.1691 39.2ZM35.3987 35.5143C35.213 35.5429 34.7487 35.5929 34.0059 35.6643C33.863 35.6786 33.6916 35.6929 33.4916 35.7071C33.2916 35.7071 33.0916 35.7286 32.8916 35.7714L32.7416 40.3143V41.0643C32.1416 41.1357 31.2701 41.1714 30.1273 41.1714C29.1416 41.1714 28.5487 41.1 28.3487 40.9571L28.3701 37.4643V34.6571C28.3844 33.1571 28.3916 30.3929 28.3916 26.3643C29.0059 26.2643 29.8916 26.1714 31.0487 26.0857C32.2201 26 33.3416 25.9571 34.413 25.9571C36.1701 25.9571 37.5701 26.0857 38.613 26.3429V26.75C38.613 26.8071 38.613 26.9286 38.613 27.1143C38.6273 27.2857 38.6416 27.6786 38.6559 28.2929C38.6559 28.7929 38.6416 29.2429 38.613 29.6429L37.0487 29.7286L36.2559 29.7714L35.8701 29.7929L34.713 29.8571C33.8987 29.8857 33.2844 29.9214 32.8701 29.9643L32.8059 30.1143C32.763 30.2429 32.7416 30.4286 32.7416 30.6714C32.7416 30.9 32.7559 31.1286 32.7844 31.3571C32.813 31.5714 32.8416 31.7 32.8701 31.7429C33.2273 31.7857 33.5701 31.8071 33.8987 31.8071C34.5559 31.8071 35.1344 31.7714 35.6344 31.7C35.7059 31.8571 35.7416 32.1571 35.7416 32.6V33.0286L35.7201 33.5429L35.6987 33.95V34.3571C35.6987 34.6571 35.713 34.9929 35.7416 35.3643C35.7416 35.4357 35.6273 35.4857 35.3987 35.5143ZM49.8874 26C49.916 26.4857 49.9303 26.9429 49.9303 27.3714C49.9303 28.2 49.8803 28.9429 49.7803 29.6C49.3089 29.5143 48.9374 29.4714 48.666 29.4714L47.6589 29.45C47.2874 29.45 47.1017 29.4714 47.1017 29.5143C47.0732 29.7143 47.0589 30.1357 47.0589 30.7786C47.0589 32.0357 47.1089 35.4214 47.2089 40.9357C46.7946 41.0071 46.3089 41.0429 45.7517 41.0429H45.1303C44.416 41.0429 43.7589 41.0929 43.1589 41.1929C43.116 41.1214 43.0803 40.9786 43.0517 40.7643C43.0374 40.5357 43.0374 40.3286 43.0517 40.1429V39.0929L43.0732 37.1643C43.0732 34.5643 43.016 32.0286 42.9017 29.5571C42.7446 29.4857 42.5232 29.45 42.2374 29.45L41.3803 29.4714C40.8946 29.4714 40.5446 29.4357 40.3303 29.3643C40.2874 29.2786 40.2517 29.0429 40.2232 28.6571C40.1946 28.2714 40.1803 27.8357 40.1803 27.35C40.1803 26.6357 40.1874 26.1214 40.2017 25.8071H41.1232L41.9589 25.7857H43.1589L44.4017 25.7643C46.5303 25.7643 48.266 25.8429 49.6089 26H49.8874Z" fill="#FCDDCE"/>
<path d="M21.1691 39.2L21.8207 38.9072L21.8189 38.9034L21.1691 39.2ZM19.3906 35.1071L20.0589 34.855L18.6763 35.1071H19.3906ZM19.412 41.0429L19.6149 41.7277L20.1498 41.5692L20.1256 41.0118L19.412 41.0429ZM17.5049 41.1714L17.5759 40.4607L17.5695 40.4601L17.5049 41.1714ZM16.8191 41.1286L16.79 41.8423L16.8046 41.8429H16.8191V41.1286ZM15.7691 41.0857H15.0549V41.7714L15.74 41.7994L15.7691 41.0857ZM15.7263 35.5786L16.4405 35.5665L15.7263 35.5786ZM15.8977 25.9571L15.7185 25.2657L15.2276 25.393L15.1858 25.8984L15.8977 25.9571ZM18.3191 25.8929L18.2277 26.6013L18.2305 26.6016L18.3191 25.8929ZM19.262 26.15L19.8909 25.8114L19.8064 25.6545L19.6582 25.5557L19.262 26.15ZM19.9906 27.7143L19.3333 27.994L19.3369 28.0025L19.3408 28.0109L19.9906 27.7143ZM20.8477 29.6857L20.1874 29.9584L20.1927 29.9705L20.8477 29.6857ZM21.7049 31.6571L21.0498 31.9419L22.4188 31.6367L21.7049 31.6571ZM21.6834 25.85L21.5466 25.1489L20.9891 25.2577L20.9696 25.8254L21.6834 25.85ZM25.2834 25.8714H25.9977V25.294L25.4331 25.173L25.2834 25.8714ZM25.2834 41.0643V41.7786H25.9977V41.0643H25.2834ZM25.0263 41.1286L24.8004 40.4509L24.7805 40.4576L24.761 40.4654L25.0263 41.1286ZM24.2763 41.2143V40.5H24.2056L24.1362 40.5139L24.2763 41.2143ZM23.1406 41.15L23.0813 41.8618L23.1406 41.15ZM22.4763 41.1071L22.4367 41.8203L22.4387 41.8204L22.4763 41.1071ZM22.0263 41.1071L21.3748 41.4L21.6395 41.989L22.2522 41.7848L22.0263 41.1071ZM21.8189 38.9034C20.9181 36.9302 20.3349 35.5865 20.0589 34.855L18.7223 35.3593C19.0177 36.1421 19.6202 37.527 20.5194 39.4966L21.8189 38.9034ZM18.6763 35.1071V39.2214H20.1049V35.1071H18.6763ZM18.6763 39.2214C18.6763 40.1058 18.6833 40.7277 18.6984 41.0739L20.1256 41.0118C20.1121 40.7009 20.1049 40.1085 20.1049 39.2214H18.6763ZM19.2091 40.358C18.8975 40.4503 18.5453 40.5 18.1477 40.5V41.9286C18.6644 41.9286 19.1551 41.864 19.6149 41.7277L19.2091 40.358ZM18.1477 40.5C18.0419 40.5 17.8566 40.4888 17.5759 40.4607L17.4338 41.8822C17.7246 41.9112 17.9678 41.9286 18.1477 41.9286V40.5ZM17.5695 40.4601C17.253 40.4313 16.9968 40.4143 16.8191 40.4143V41.8429C16.9272 41.8429 17.1281 41.8544 17.4402 41.8828L17.5695 40.4601ZM16.8483 40.4149L15.7983 40.372L15.74 41.7994L16.79 41.8423L16.8483 40.4149ZM16.4834 41.0857V39.4786H15.0549V41.0857H16.4834ZM16.4834 39.4786C16.4834 38.5582 16.4691 37.2535 16.4405 35.5665L15.0121 35.5907C15.0406 37.2751 15.0549 38.5704 15.0549 39.4786H16.4834ZM16.4405 35.5665C16.4263 34.7299 16.4191 33.4563 16.4191 31.7429H14.9906C14.9906 33.458 14.9977 34.7415 15.0121 35.5907L16.4405 35.5665ZM16.4191 31.7429C16.4191 29.4543 16.4832 27.5467 16.6096 26.0159L15.1858 25.8984C15.0551 27.4818 14.9906 29.4315 14.9906 31.7429H16.4191ZM16.077 26.6486C16.3946 26.5662 16.7618 26.5214 17.1834 26.5214V25.0929C16.6622 25.0929 16.1722 25.1481 15.7185 25.2657L16.077 26.6486ZM17.1834 26.5214C17.4574 26.5214 17.8037 26.5466 18.2277 26.6013L18.4105 25.1844C17.9489 25.1249 17.538 25.0929 17.1834 25.0929V26.5214ZM18.2305 26.6016C18.4381 26.6276 18.5955 26.658 18.7098 26.6891C18.8307 26.7221 18.87 26.7471 18.8658 26.7443L19.6582 25.5557C19.3353 25.3404 18.8711 25.242 18.4077 25.1841L18.2305 26.6016ZM18.6331 26.4886C18.8179 26.8319 19.051 27.3304 19.3333 27.994L20.6478 27.4346C20.3588 26.7553 20.106 26.2109 19.8909 25.8114L18.6331 26.4886ZM19.3408 28.0109C19.6372 28.6603 19.9195 29.3094 20.1875 29.9584L21.5079 29.413C21.2331 28.7477 20.9439 28.0826 20.6403 27.4176L19.3408 28.0109ZM20.1927 29.9705L21.0498 31.9419L22.3599 31.3723L21.5028 29.4009L20.1927 29.9705ZM22.4188 31.6367C22.3905 30.6454 22.3763 29.474 22.3763 28.1214H20.9477C20.9477 29.4832 20.962 30.6688 20.9909 31.6775L22.4188 31.6367ZM22.3763 28.1214C22.3763 27.0205 22.3835 26.275 22.3973 25.8746L20.9696 25.8254C20.9548 26.2536 20.9477 27.0223 20.9477 28.1214H22.3763ZM21.8202 26.5511C22.3566 26.4464 22.9319 26.3929 23.5477 26.3929V24.9643C22.8492 24.9643 22.1817 25.025 21.5466 25.1489L21.8202 26.5511ZM23.5477 26.3929C24.0498 26.3929 24.5781 26.4508 25.1338 26.5699L25.4331 25.173C24.7888 25.0349 24.1599 24.9643 23.5477 24.9643V26.3929ZM24.5691 25.8714V41.0643H25.9977V25.8714H24.5691ZM25.2834 40.35C25.1698 40.35 25.0667 40.3742 25.0138 40.3874C24.9465 40.4042 24.8739 40.4264 24.8004 40.4509L25.2522 41.8062C25.2788 41.7973 25.3013 41.7902 25.3199 41.7846C25.3387 41.779 25.3519 41.7754 25.3602 41.7733C25.3692 41.7711 25.3686 41.7716 25.3607 41.7729C25.3564 41.7736 25.3481 41.7749 25.3364 41.776C25.3252 41.7772 25.3069 41.7786 25.2834 41.7786V40.35ZM24.761 40.4654C24.774 40.4602 24.7469 40.4722 24.6505 40.4832C24.561 40.4934 24.438 40.5 24.2763 40.5V41.9286C24.6355 41.9286 25.0092 41.9047 25.2916 41.7918L24.761 40.4654ZM24.1362 40.5139C24.1663 40.5079 24.1884 40.5057 24.1957 40.5051C24.2006 40.5047 24.2041 40.5044 24.2062 40.5043C24.2072 40.5042 24.208 40.5042 24.2085 40.5042C24.209 40.5042 24.2093 40.5042 24.2093 40.5041C24.2093 40.5041 24.2086 40.5042 24.207 40.5042C24.2054 40.5042 24.2032 40.5043 24.2003 40.5043C24.1944 40.5043 24.1866 40.5043 24.1765 40.5041C24.1342 40.5034 24.0697 40.5009 23.9792 40.4958C23.7993 40.4856 23.5406 40.4666 23.1999 40.4382L23.0813 41.8618C23.4262 41.8906 23.6997 41.9108 23.8984 41.9221C23.9972 41.9277 24.0835 41.9314 24.1538 41.9325C24.1952 41.9332 24.3105 41.9359 24.4164 41.9147L24.1362 40.5139ZM23.1999 40.4382C23.0183 40.423 22.7889 40.4083 22.5138 40.3938L22.4387 41.8204C22.7065 41.8345 22.92 41.8484 23.0813 41.8618L23.1999 40.4382ZM22.5159 40.394C22.382 40.3865 22.2652 40.3821 22.1709 40.3821C22.1243 40.3821 22.0742 40.3832 22.0258 40.3868C21.9938 40.3891 21.9008 40.396 21.8004 40.4295L22.2522 41.7848C22.2043 41.8007 22.1677 41.8066 22.156 41.8084C22.1408 41.8108 22.1316 41.8114 22.1313 41.8114C22.1311 41.8115 22.1426 41.8107 22.1709 41.8107C22.2267 41.8107 22.3134 41.8135 22.4367 41.8203L22.5159 40.394ZM22.6778 40.8143L21.8207 38.9072L20.5176 39.4928L21.3748 41.4L22.6778 40.8143ZM35.3987 35.5143L35.3101 34.8055L35.3001 34.8068L35.2901 34.8083L35.3987 35.5143ZM34.0059 35.6643L33.9375 34.9533L33.9348 34.9535L34.0059 35.6643ZM33.4916 35.7071V36.4214H33.5171L33.5425 36.4196L33.4916 35.7071ZM32.8916 35.7714L32.7419 35.073L32.1961 35.19L32.1777 35.7479L32.8916 35.7714ZM32.7416 40.3143L32.0277 40.2907L32.0273 40.3025V40.3143H32.7416ZM32.7416 41.0643L32.826 41.7736L33.4559 41.6986V41.0643H32.7416ZM28.3487 40.9571L27.6344 40.9528L27.6322 41.3231L27.9335 41.5384L28.3487 40.9571ZM28.3701 37.4643L29.0844 37.4687V37.4643H28.3701ZM28.3701 34.6571L27.6559 34.6503V34.6571H28.3701ZM28.3916 26.3643L28.2768 25.6593L27.6773 25.7569V26.3643H28.3916ZM31.0487 26.0857L30.9966 25.3733L30.996 25.3734L31.0487 26.0857ZM38.613 26.3429H39.3273V25.7833L38.784 25.6493L38.613 26.3429ZM38.613 27.1143H37.8987V27.144L37.9012 27.1736L38.613 27.1143ZM38.6559 28.2929H39.3701V28.2846L39.37 28.2762L38.6559 28.2929ZM38.613 29.6429L38.6521 30.3561L39.2806 30.3216L39.3255 29.6937L38.613 29.6429ZM37.0487 29.7286L37.0873 30.4418L37.0878 30.4418L37.0487 29.7286ZM36.2559 29.7714L36.2173 29.0582L36.2162 29.0582L36.2559 29.7714ZM35.8701 29.7929L35.9098 30.506L35.9098 30.506L35.8701 29.7929ZM34.713 29.8571L34.7381 30.571L34.7453 30.5707L34.7526 30.5703L34.713 29.8571ZM32.8701 29.9643L32.7966 29.2538L32.379 29.297L32.2136 29.6829L32.8701 29.9643ZM32.8059 30.1143L32.1493 29.8329L32.1376 29.8602L32.1282 29.8884L32.8059 30.1143ZM32.7844 31.3571L32.0756 31.4457L32.0764 31.4515L32.7844 31.3571ZM32.8701 31.7429L32.2758 32.1391L32.4583 32.4129L32.785 32.4521L32.8701 31.7429ZM35.6344 31.7L36.2847 31.4044L36.0632 30.9172L35.5334 30.9929L35.6344 31.7ZM35.7416 33.0286L36.4552 33.0583L36.4559 33.0434V33.0286H35.7416ZM35.7201 33.5429L36.4335 33.5804L36.4338 33.5726L35.7201 33.5429ZM35.6987 33.95L34.9854 33.9125L34.9844 33.9312V33.95H35.6987ZM35.7416 35.3643H36.4559V35.3369L36.4538 35.3095L35.7416 35.3643ZM35.2901 34.8083C35.129 34.8331 34.6878 34.8811 33.9375 34.9533L34.0742 36.3753C34.8096 36.3046 35.297 36.2526 35.5073 36.2203L35.2901 34.8083ZM33.9348 34.9535C33.8007 34.967 33.6364 34.9807 33.4407 34.9947L33.5425 36.4196C33.7468 36.405 33.9253 36.3902 34.0769 36.375L33.9348 34.9535ZM33.4916 34.9929C33.2401 34.9929 32.99 35.0198 32.7419 35.073L33.0412 36.4699C33.1932 36.4373 33.343 36.4214 33.4916 36.4214V34.9929ZM32.1777 35.7479L32.0277 40.2907L33.4555 40.3379L33.6055 35.795L32.1777 35.7479ZM32.0273 40.3143V41.0643H33.4559V40.3143H32.0273ZM32.6571 40.355C32.0998 40.4214 31.2621 40.4571 30.1273 40.4571V41.8857C31.2782 41.8857 32.1833 41.8501 32.826 41.7736L32.6571 40.355ZM30.1273 40.4571C29.6472 40.4571 29.2846 40.4395 29.0288 40.4087C28.9008 40.3933 28.8136 40.3762 28.7587 40.3613C28.6942 40.3439 28.7136 40.34 28.7639 40.3759L27.9335 41.5384C28.0839 41.6458 28.2523 41.7043 28.386 41.7404C28.5294 41.7792 28.6895 41.8067 28.8579 41.827C29.1949 41.8676 29.6217 41.8857 30.1273 41.8857V40.4571ZM29.063 40.9615L29.0844 37.4687L27.6559 37.4599L27.6344 40.9528L29.063 40.9615ZM29.0844 37.4643V34.6571H27.6559V37.4643H29.0844ZM29.0844 34.6639C29.0987 33.1601 29.1059 30.3926 29.1059 26.3643H27.6773C27.6773 30.3931 27.6701 33.1542 27.6559 34.6503L29.0844 34.6639ZM28.5063 27.0693C29.0895 26.9744 29.9507 26.8833 31.1015 26.798L30.996 25.3734C29.8325 25.4596 28.9222 25.5542 28.2768 25.6593L28.5063 27.0693ZM31.1008 26.7981C32.2566 26.7135 33.3605 26.6714 34.413 26.6714V25.2429C33.3226 25.2429 32.1837 25.2865 30.9966 25.3733L31.1008 26.7981ZM34.413 26.6714C36.144 26.6714 37.4791 26.7989 38.442 27.0364L38.784 25.6493C37.6612 25.3725 36.1963 25.2429 34.413 25.2429V26.6714ZM37.8987 26.3429V26.75H39.3273V26.3429H37.8987ZM37.8987 26.75C37.8987 26.7501 37.8987 26.7502 37.8987 26.7503C37.8987 26.7504 37.8987 26.7506 37.8987 26.7507C37.8987 26.7508 37.8987 26.7509 37.8987 26.751C37.8987 26.7511 37.8987 26.7512 37.8987 26.7514C37.8987 26.7515 37.8987 26.7516 37.8987 26.7517C37.8987 26.7518 37.8987 26.7519 37.8987 26.752C37.8987 26.7521 37.8987 26.7523 37.8987 26.7524C37.8987 26.7525 37.8987 26.7526 37.8987 26.7527C37.8987 26.7528 37.8987 26.753 37.8987 26.7531C37.8987 26.7532 37.8987 26.7533 37.8987 26.7534C37.8987 26.7535 37.8987 26.7537 37.8987 26.7538C37.8987 26.7539 37.8987 26.754 37.8987 26.7541C37.8987 26.7542 37.8987 26.7544 37.8987 26.7545C37.8987 26.7546 37.8987 26.7547 37.8987 26.7548C37.8987 26.7549 37.8987 26.7551 37.8987 26.7552C37.8987 26.7553 37.8987 26.7554 37.8987 26.7555C37.8987 26.7557 37.8987 26.7558 37.8987 26.7559C37.8987 26.756 37.8987 26.7561 37.8987 26.7563C37.8987 26.7564 37.8987 26.7565 37.8987 26.7566C37.8987 26.7567 37.8987 26.7569 37.8987 26.757C37.8987 26.7571 37.8987 26.7572 37.8987 26.7574C37.8987 26.7575 37.8987 26.7576 37.8987 26.7577C37.8987 26.7578 37.8987 26.758 37.8987 26.7581C37.8987 26.7582 37.8987 26.7583 37.8987 26.7585C37.8987 26.7586 37.8987 26.7587 37.8987 26.7588C37.8987 26.759 37.8987 26.7591 37.8987 26.7592C37.8987 26.7593 37.8987 26.7595 37.8987 26.7596C37.8987 26.7597 37.8987 26.7598 37.8987 26.76C37.8987 26.7601 37.8987 26.7602 37.8987 26.7603C37.8987 26.7605 37.8987 26.7606 37.8987 26.7607C37.8987 26.7608 37.8987 26.761 37.8987 26.7611C37.8987 26.7612 37.8987 26.7613 37.8987 26.7615C37.8987 26.7616 37.8987 26.7617 37.8987 26.7618C37.8987 26.762 37.8987 26.7621 37.8987 26.7622C37.8987 26.7624 37.8987 26.7625 37.8987 26.7626C37.8987 26.7627 37.8987 26.7629 37.8987 26.763C37.8987 26.7631 37.8987 26.7633 37.8987 26.7634C37.8987 26.7635 37.8987 26.7637 37.8987 26.7638C37.8987 26.7639 37.8987 26.764 37.8987 26.7642C37.8987 26.7643 37.8987 26.7644 37.8987 26.7646C37.8987 26.7647 37.8987 26.7648 37.8987 26.765C37.8987 26.7651 37.8987 26.7652 37.8987 26.7654C37.8987 26.7655 37.8987 26.7656 37.8987 26.7658C37.8987 26.7659 37.8987 26.766 37.8987 26.7662C37.8987 26.7663 37.8987 26.7664 37.8987 26.7666C37.8987 26.7667 37.8987 26.7668 37.8987 26.767C37.8987 26.7671 37.8987 26.7672 37.8987 26.7674C37.8987 26.7675 37.8987 26.7676 37.8987 26.7678C37.8987 26.7679 37.8987 26.768 37.8987 26.7682C37.8987 26.7683 37.8987 26.7684 37.8987 26.7686C37.8987 26.7687 37.8987 26.7689 37.8987 26.769C37.8987 26.7691 37.8987 26.7693 37.8987 26.7694C37.8987 26.7695 37.8987 26.7697 37.8987 26.7698C37.8987 26.7699 37.8987 26.7701 37.8987 26.7702C37.8987 26.7704 37.8987 26.7705 37.8987 26.7706C37.8987 26.7708 37.8987 26.7709 37.8987 26.7711C37.8987 26.7712 37.8987 26.7713 37.8987 26.7715C37.8987 26.7716 37.8987 26.7718 37.8987 26.7719C37.8987 26.772 37.8987 26.7722 37.8987 26.7723C37.8987 26.7725 37.8987 26.7726 37.8987 26.7727C37.8987 26.7729 37.8987 26.773 37.8987 26.7732C37.8987 26.7733 37.8987 26.7734 37.8987 26.7736C37.8987 26.7737 37.8987 26.7739 37.8987 26.774C37.8987 26.7742 37.8987 26.7743 37.8987 26.7744C37.8987 26.7746 37.8987 26.7747 37.8987 26.7749C37.8987 26.775 37.8987 26.7752 37.8987 26.7753C37.8987 26.7754 37.8987 26.7756 37.8987 26.7757C37.8987 26.7759 37.8987 26.776 37.8987 26.7762C37.8987 26.7763 37.8987 26.7765 37.8987 26.7766C37.8987 26.7768 37.8987 26.7769 37.8987 26.777C37.8987 26.7772 37.8987 26.7773 37.8987 26.7775C37.8987 26.7776 37.8987 26.7778 37.8987 26.7779C37.8987 26.7781 37.8987 26.7782 37.8987 26.7784C37.8987 26.7785 37.8987 26.7787 37.8987 26.7788C37.8987 26.779 37.8987 26.7791 37.8987 26.7792C37.8987 26.7794 37.8987 26.7795 37.8987 26.7797C37.8987 26.7798 37.8987 26.78 37.8987 26.7801C37.8987 26.7803 37.8987 26.7804 37.8987 26.7806C37.8987 26.7807 37.8987 26.7809 37.8987 26.781C37.8987 26.7812 37.8987 26.7813 37.8987 26.7815C37.8987 26.7816 37.8987 26.7818 37.8987 26.7819C37.8987 26.7821 37.8987 26.7822 37.8987 26.7824C37.8987 26.7826 37.8987 26.7827 37.8987 26.7829C37.8987 26.783 37.8987 26.7832 37.8987 26.7833C37.8987 26.7835 37.8987 26.7836 37.8987 26.7838C37.8987 26.7839 37.8987 26.7841 37.8987 26.7842C37.8987 26.7844 37.8987 26.7845 37.8987 26.7847C37.8987 26.7849 37.8987 26.785 37.8987 26.7852C37.8987 26.7853 37.8987 26.7855 37.8987 26.7856C37.8987 26.7858 37.8987 26.7859 37.8987 26.7861C37.8987 26.7862 37.8987 26.7864 37.8987 26.7866C37.8987 26.7867 37.8987 26.7869 37.8987 26.787C37.8987 26.7872 37.8987 26.7873 37.8987 26.7875C37.8987 26.7877 37.8987 26.7878 37.8987 26.788C37.8987 26.7881 37.8987 26.7883 37.8987 26.7884C37.8987 26.7886 37.8987 26.7888 37.8987 26.7889C37.8987 26.7891 37.8987 26.7892 37.8987 26.7894C37.8987 26.7896 37.8987 26.7897 37.8987 26.7899C37.8987 26.79 37.8987 26.7902 37.8987 26.7904C37.8987 26.7905 37.8987 26.7907 37.8987 26.7908C37.8987 26.791 37.8987 26.7912 37.8987 26.7913C37.8987 26.7915 37.8987 26.7916 37.8987 26.7918C37.8987 26.792 37.8987 26.7921 37.8987 26.7923C37.8987 26.7925 37.8987 26.7926 37.8987 26.7928C37.8987 26.7929 37.8987 26.7931 37.8987 26.7933C37.8987 26.7934 37.8987 26.7936 37.8987 26.7938C37.8987 26.7939 37.8987 26.7941 37.8987 26.7942C37.8987 26.7944 37.8987 26.7946 37.8987 26.7947C37.8987 26.7949 37.8987 26.7951 37.8987 26.7952C37.8987 26.7954 37.8987 26.7956 37.8987 26.7957C37.8987 26.7959 37.8987 26.7961 37.8987 26.7962C37.8987 26.7964 37.8987 26.7966 37.8987 26.7967C37.8987 26.7969 37.8987 26.7971 37.8987 26.7972C37.8987 26.7974 37.8987 26.7976 37.8987 26.7977C37.8987 26.7979 37.8987 26.7981 37.8987 26.7982C37.8987 26.7984 37.8987 26.7986 37.8987 26.7987C37.8987 26.7989 37.8987 26.7991 37.8987 26.7992C37.8987 26.7994 37.8987 26.7996 37.8987 26.7998C37.8987 26.7999 37.8987 26.8001 37.8987 26.8003C37.8987 26.8004 37.8987 26.8006 37.8987 26.8008C37.8987 26.8009 37.8987 26.8011 37.8987 26.8013C37.8987 26.8015 37.8987 26.8016 37.8987 26.8018C37.8987 26.802 37.8987 26.8021 37.8987 26.8023C37.8987 26.8025 37.8987 26.8027 37.8987 26.8028C37.8987 26.803 37.8987 26.8032 37.8987 26.8033C37.8987 26.8035 37.8987 26.8037 37.8987 26.8039C37.8987 26.804 37.8987 26.8042 37.8987 26.8044C37.8987 26.8046 37.8987 26.8047 37.8987 26.8049C37.8987 26.8051 37.8987 26.8053 37.8987 26.8054C37.8987 26.8056 37.8987 26.8058 37.8987 26.806C37.8987 26.8061 37.8987 26.8063 37.8987 26.8065C37.8987 26.8067 37.8987 26.8068 37.8987 26.807C37.8987 26.8072 37.8987 26.8074 37.8987 26.8075C37.8987 26.8077 37.8987 26.8079 37.8987 26.8081C37.8987 26.8083 37.8987 26.8084 37.8987 26.8086C37.8987 26.8088 37.8987 26.809 37.8987 26.8091C37.8987 26.8093 37.8987 26.8095 37.8987 26.8097C37.8987 26.8099 37.8987 26.81 37.8987 26.8102C37.8987 26.8104 37.8987 26.8106 37.8987 26.8108C37.8987 26.8109 37.8987 26.8111 37.8987 26.8113C37.8987 26.8115 37.8987 26.8117 37.8987 26.8118C37.8987 26.812 37.8987 26.8122 37.8987 26.8124C37.8987 26.8126 37.8987 26.8127 37.8987 26.8129C37.8987 26.8131 37.8987 26.8133 37.8987 26.8135C37.8987 26.8137 37.8987 26.8138 37.8987 26.814C37.8987 26.8142 37.8987 26.8144 37.8987 26.8146C37.8987 26.8147 37.8987 26.8149 37.8987 26.8151C37.8987 26.8153 37.8987 26.8155 37.8987 26.8157C37.8987 26.8159 37.8987 26.816 37.8987 26.8162C37.8987 26.8164 37.8987 26.8166 37.8987 26.8168C37.8987 26.817 37.8987 26.8171 37.8987 26.8173C37.8987 26.8175 37.8987 26.8177 37.8987 26.8179C37.8987 26.8181 37.8987 26.8183 37.8987 26.8184C37.8987 26.8186 37.8987 26.8188 37.8987 26.819C37.8987 26.8192 37.8987 26.8194 37.8987 26.8196C37.8987 26.8198 37.8987 26.8199 37.8987 26.8201C37.8987 26.8203 37.8987 26.8205 37.8987 26.8207C37.8987 26.8209 37.8987 26.8211 37.8987 26.8213C37.8987 26.8215 37.8987 26.8216 37.8987 26.8218C37.8987 26.822 37.8987 26.8222 37.8987 26.8224C37.8987 26.8226 37.8987 26.8228 37.8987 26.823C37.8987 26.8232 37.8987 26.8234 37.8987 26.8235C37.8987 26.8237 37.8987 26.8239 37.8987 26.8241C37.8987 26.8243 37.8987 26.8245 37.8987 26.8247C37.8987 26.8249 37.8987 26.8251 37.8987 26.8253C37.8987 26.8255 37.8987 26.8257 37.8987 26.8259C37.8987 26.826 37.8987 26.8262 37.8987 26.8264C37.8987 26.8266 37.8987 26.8268 37.8987 26.827C37.8987 26.8272 37.8987 26.8274 37.8987 26.8276C37.8987 26.8278 37.8987 26.828 37.8987 26.8282C37.8987 26.8284 37.8987 26.8286 37.8987 26.8288C37.8987 26.829 37.8987 26.8292 37.8987 26.8294C37.8987 26.8295 37.8987 26.8297 37.8987 26.8299C37.8987 26.8301 37.8987 26.8303 37.8987 26.8305C37.8987 26.8307 37.8987 26.8309 37.8987 26.8311C37.8987 26.8313 37.8987 26.8315 37.8987 26.8317C37.8987 26.8319 37.8987 26.8321 37.8987 26.8323C37.8987 26.8325 37.8987 26.8327 37.8987 26.8329C37.8987 26.8331 37.8987 26.8333 37.8987 26.8335C37.8987 26.8337 37.8987 26.8339 37.8987 26.8341C37.8987 26.8343 37.8987 26.8345 37.8987 26.8347C37.8987 26.8349 37.8987 26.8351 37.8987 26.8353C37.8987 26.8355 37.8987 26.8357 37.8987 26.8359C37.8987 26.8361 37.8987 26.8363 37.8987 26.8365C37.8987 26.8367 37.8987 26.8369 37.8987 26.8371C37.8987 26.8373 37.8987 26.8375 37.8987 26.8377C37.8987 26.8379 37.8987 26.8381 37.8987 26.8383C37.8987 26.8385 37.8987 26.8387 37.8987 26.8389C37.8987 26.8392 37.8987 26.8394 37.8987 26.8396C37.8987 26.8398 37.8987 26.84 37.8987 26.8402C37.8987 26.8404 37.8987 26.8406 37.8987 26.8408C37.8987 26.841 37.8987 26.8412 37.8987 26.8414C37.8987 26.8416 37.8987 26.8418 37.8987 26.842C37.8987 26.8422 37.8987 26.8424 37.8987 26.8426C37.8987 26.8429 37.8987 26.8431 37.8987 26.8433C37.8987 26.8435 37.8987 26.8437 37.8987 26.8439C37.8987 26.8441 37.8987 26.8443 37.8987 26.8445C37.8987 26.8447 37.8987 26.8449 37.8987 26.8451C37.8987 26.8453 37.8987 26.8456 37.8987 26.8458C37.8987 26.846 37.8987 26.8462 37.8987 26.8464C37.8987 26.8466 37.8987 26.8468 37.8987 26.847C37.8987 26.8472 37.8987 26.8474 37.8987 26.8477C37.8987 26.8479 37.8987 26.8481 37.8987 26.8483C37.8987 26.8485 37.8987 26.8487 37.8987 26.8489C37.8987 26.8491 37.8987 26.8493 37.8987 26.8496C37.8987 26.8498 37.8987 26.85 37.8987 26.8502C37.8987 26.8504 37.8987 26.8506 37.8987 26.8508C37.8987 26.851 37.8987 26.8513 37.8987 26.8515C37.8987 26.8517 37.8987 26.8519 37.8987 26.8521C37.8987 26.8523 37.8987 26.8525 37.8987 26.8528C37.8987 26.853 37.8987 26.8532 37.8987 26.8534C37.8987 26.8536 37.8987 26.8538 37.8987 26.854C37.8987 26.8543 37.8987 26.8545 37.8987 26.8547C37.8987 26.8549 37.8987 26.8551 37.8987 26.8553C37.8987 26.8556 37.8987 26.8558 37.8987 26.856C37.8987 26.8562 37.8987 26.8564 37.8987 26.8566C37.8987 26.8569 37.8987 26.8571 37.8987 26.8573C37.8987 26.8575 37.8987 26.8577 37.8987 26.858C37.8987 26.8582 37.8987 26.8584 37.8987 26.8586C37.8987 26.8588 37.8987 26.859 37.8987 26.8593C37.8987 26.8595 37.8987 26.8597 37.8987 26.8599C37.8987 26.8601 37.8987 26.8604 37.8987 26.8606C37.8987 26.8608 37.8987 26.861 37.8987 26.8612C37.8987 26.8615 37.8987 26.8617 37.8987 26.8619C37.8987 26.8621 37.8987 26.8624 37.8987 26.8626C37.8987 26.8628 37.8987 26.863 37.8987 26.8632C37.8987 26.8635 37.8987 26.8637 37.8987 26.8639C37.8987 26.8641 37.8987 26.8644 37.8987 26.8646C37.8987 26.8648 37.8987 26.865 37.8987 26.8653C37.8987 26.8655 37.8987 26.8657 37.8987 26.8659C37.8987 26.8662 37.8987 26.8664 37.8987 26.8666C37.8987 26.8668 37.8987 26.8671 37.8987 26.8673C37.8987 26.8675 37.8987 26.8677 37.8987 26.868C37.8987 26.8682 37.8987 26.8684 37.8987 26.8686C37.8987 26.8689 37.8987 26.8691 37.8987 26.8693C37.8987 26.8695 37.8987 26.8698 37.8987 26.87C37.8987 26.8702 37.8987 26.8704 37.8987 26.8707C37.8987 26.8709 37.8987 26.8711 37.8987 26.8714C37.8987 26.8716 37.8987 26.8718 37.8987 26.872C37.8987 26.8723 37.8987 26.8725 37.8987 26.8727C37.8987 26.873 37.8987 26.8732 37.8987 26.8734C37.8987 26.8737 37.8987 26.8739 37.8987 26.8741C37.8987 26.8743 37.8987 26.8746 37.8987 26.8748C37.8987 26.875 37.8987 26.8753 37.8987 26.8755C37.8987 26.8757 37.8987 26.876 37.8987 26.8762C37.8987 26.8764 37.8987 26.8767 37.8987 26.8769C37.8987 26.8771 37.8987 26.8774 37.8987 26.8776C37.8987 26.8778 37.8987 26.878 37.8987 26.8783C37.8987 26.8785 37.8987 26.8787 37.8987 26.879C37.8987 26.8792 37.8987 26.8795 37.8987 26.8797C37.8987 26.8799 37.8987 26.8802 37.8987 26.8804C37.8987 26.8806 37.8987 26.8809 37.8987 26.8811C37.8987 26.8813 37.8987 26.8816 37.8987 26.8818C37.8987 26.882 37.8987 26.8823 37.8987 26.8825C37.8987 26.8827 37.8987 26.883 37.8987 26.8832C37.8987 26.8835 37.8987 26.8837 37.8987 26.8839C37.8987 26.8842 37.8987 26.8844 37.8987 26.8846C37.8987 26.8849 37.8987 26.8851 37.8987 26.8854C37.8987 26.8856 37.8987 26.8858 37.8987 26.8861C37.8987 26.8863 37.8987 26.8865 37.8987 26.8868C37.8987 26.887 37.8987 26.8873 37.8987 26.8875C37.8987 26.8877 37.8987 26.888 37.8987 26.8882C37.8987 26.8885 37.8987 26.8887 37.8987 26.8889C37.8987 26.8892 37.8987 26.8894 37.8987 26.8897C37.8987 26.8899 37.8987 26.8901 37.8987 26.8904C37.8987 26.8906 37.8987 26.8909 37.8987 26.8911C37.8987 26.8914 37.8987 26.8916 37.8987 26.8918C37.8987 26.8921 37.8987 26.8923 37.8987 26.8926C37.8987 26.8928 37.8987 26.8931 37.8987 26.8933C37.8987 26.8935 37.8987 26.8938 37.8987 26.894C37.8987 26.8943 37.8987 26.8945 37.8987 26.8948C37.8987 26.895 37.8987 26.8953 37.8987 26.8955C37.8987 26.8957 37.8987 26.896 37.8987 26.8962C37.8987 26.8965 37.8987 26.8967 37.8987 26.897C37.8987 26.8972 37.8987 26.8975 37.8987 26.8977C37.8987 26.898 37.8987 26.8982 37.8987 26.8985C37.8987 26.8987 37.8987 26.8989 37.8987 26.8992C37.8987 26.8994 37.8987 26.8997 37.8987 26.8999C37.8987 26.9002 37.8987 26.9004 37.8987 26.9007C37.8987 26.9009 37.8987 26.9012 37.8987 26.9014C37.8987 26.9017 37.8987 26.9019 37.8987 26.9022C37.8987 26.9024 37.8987 26.9027 37.8987 26.9029C37.8987 26.9032 37.8987 26.9034 37.8987 26.9037C37.8987 26.9039 37.8987 26.9042 37.8987 26.9044C37.8987 26.9047 37.8987 26.9049 37.8987 26.9052C37.8987 26.9054 37.8987 26.9057 37.8987 26.9059C37.8987 26.9062 37.8987 26.9064 37.8987 26.9067C37.8987 26.9069 37.8987 26.9072 37.8987 26.9074C37.8987 26.9077 37.8987 26.908 37.8987 26.9082C37.8987 26.9085 37.8987 26.9087 37.8987 26.909C37.8987 26.9092 37.8987 26.9095 37.8987 26.9097C37.8987 26.91 37.8987 26.9102 37.8987 26.9105C37.8987 26.9108 37.8987 26.911 37.8987 26.9113C37.8987 26.9115 37.8987 26.9118 37.8987 26.912C37.8987 26.9123 37.8987 26.9125 37.8987 26.9128C37.8987 26.9131 37.8987 26.9133 37.8987 26.9136C37.8987 26.9138 37.8987 26.9141 37.8987 26.9143C37.8987 26.9146 37.8987 26.9149 37.8987 26.9151C37.8987 26.9154 37.8987 26.9156 37.8987 26.9159C37.8987 26.9161 37.8987 26.9164 37.8987 26.9167C37.8987 26.9169 37.8987 26.9172 37.8987 26.9174C37.8987 26.9177 37.8987 26.918 37.8987 26.9182C37.8987 26.9185 37.8987 26.9187 37.8987 26.919C37.8987 26.9193 37.8987 26.9195 37.8987 26.9198C37.8987 26.92 37.8987 26.9203 37.8987 26.9206C37.8987 26.9208 37.8987 26.9211 37.8987 26.9213C37.8987 26.9216 37.8987 26.9219 37.8987 26.9221C37.8987 26.9224 37.8987 26.9227 37.8987 26.9229C37.8987 26.9232 37.8987 26.9234 37.8987 26.9237C37.8987 26.924 37.8987 26.9242 37.8987 26.9245C37.8987 26.9248 37.8987 26.925 37.8987 26.9253C37.8987 26.9255 37.8987 26.9258 37.8987 26.9261C37.8987 26.9263 37.8987 26.9266 37.8987 26.9269C37.8987 26.9271 37.8987 26.9274 37.8987 26.9277C37.8987 26.9279 37.8987 26.9282 37.8987 26.9285C37.8987 26.9287 37.8987 26.929 37.8987 26.9293C37.8987 26.9295 37.8987 26.9298 37.8987 26.9301C37.8987 26.9303 37.8987 26.9306 37.8987 26.9309C37.8987 26.9311 37.8987 26.9314 37.8987 26.9317C37.8987 26.9319 37.8987 26.9322 37.8987 26.9325C37.8987 26.9327 37.8987 26.933 37.8987 26.9333C37.8987 26.9336 37.8987 26.9338 37.8987 26.9341C37.8987 26.9344 37.8987 26.9346 37.8987 26.9349C37.8987 26.9352 37.8987 26.9354 37.8987 26.9357C37.8987 26.936 37.8987 26.9363 37.8987 26.9365C37.8987 26.9368 37.8987 26.9371 37.8987 26.9373C37.8987 26.9376 37.8987 26.9379 37.8987 26.9382C37.8987 26.9384 37.8987 26.9387 37.8987 26.939C37.8987 26.9392 37.8987 26.9395 37.8987 26.9398C37.8987 26.9401 37.8987 26.9403 37.8987 26.9406C37.8987 26.9409 37.8987 26.9412 37.8987 26.9414C37.8987 26.9417 37.8987 26.942 37.8987 26.9423C37.8987 26.9425 37.8987 26.9428 37.8987 26.9431C37.8987 26.9434 37.8987 26.9436 37.8987 26.9439C37.8987 26.9442 37.8987 26.9445 37.8987 26.9447C37.8987 26.945 37.8987 26.9453 37.8987 26.9456C37.8987 26.9458 37.8987 26.9461 37.8987 26.9464C37.8987 26.9467 37.8987 26.9469 37.8987 26.9472C37.8987 26.9475 37.8987 26.9478 37.8987 26.9481C37.8987 26.9483 37.8987 26.9486 37.8987 26.9489C37.8987 26.9492 37.8987 26.9494 37.8987 26.9497C37.8987 26.95 37.8987 26.9503 37.8987 26.9506C37.8987 26.9508 37.8987 26.9511 37.8987 26.9514C37.8987 26.9517 37.8987 26.952 37.8987 26.9522C37.8987 26.9525 37.8987 26.9528 37.8987 26.9531C37.8987 26.9534 37.8987 26.9536 37.8987 26.9539C37.8987 26.9542 37.8987 26.9545 37.8987 26.9548C37.8987 26.955 37.8987 26.9553 37.8987 26.9556C37.8987 26.9559 37.8987 26.9562 37.8987 26.9565C37.8987 26.9567 37.8987 26.957 37.8987 26.9573C37.8987 26.9576 37.8987 26.9579 37.8987 26.9582C37.8987 26.9584 37.8987 26.9587 37.8987 26.959C37.8987 26.9593 37.8987 26.9596 37.8987 26.9599C37.8987 26.9602 37.8987 26.9604 37.8987 26.9607C37.8987 26.961 37.8987 26.9613 37.8987 26.9616C37.8987 26.9619 37.8987 26.9621 37.8987 26.9624C37.8987 26.9627 37.8987 26.963 37.8987 26.9633C37.8987 26.9636 37.8987 26.9639 37.8987 26.9642C37.8987 26.9644 37.8987 26.9647 37.8987 26.965C37.8987 26.9653 37.8987 26.9656 37.8987 26.9659C37.8987 26.9662 37.8987 26.9665 37.8987 26.9667C37.8987 26.967 37.8987 26.9673 37.8987 26.9676C37.8987 26.9679 37.8987 26.9682 37.8987 26.9685C37.8987 26.9688 37.8987 26.9691 37.8987 26.9694C37.8987 26.9696 37.8987 26.9699 37.8987 26.9702C37.8987 26.9705 37.8987 26.9708 37.8987 26.9711C37.8987 26.9714 37.8987 26.9717 37.8987 26.972C37.8987 26.9723 37.8987 26.9726 37.8987 26.9728C37.8987 26.9731 37.8987 26.9734 37.8987 26.9737C37.8987 26.974 37.8987 26.9743 37.8987 26.9746C37.8987 26.9749 37.8987 26.9752 37.8987 26.9755C37.8987 26.9758 37.8987 26.9761 37.8987 26.9764C37.8987 26.9767 37.8987 26.9769 37.8987 26.9772C37.8987 26.9775 37.8987 26.9778 37.8987 26.9781C37.8987 26.9784 37.8987 26.9787 37.8987 26.979C37.8987 26.9793 37.8987 26.9796 37.8987 26.9799C37.8987 26.9802 37.8987 26.9805 37.8987 26.9808C37.8987 26.9811 37.8987 26.9814 37.8987 26.9817C37.8987 26.982 37.8987 26.9823 37.8987 26.9826C37.8987 26.9829 37.8987 26.9832 37.8987 26.9835C37.8987 26.9838 37.8987 26.9841 37.8987 26.9844C37.8987 26.9847 37.8987 26.985 37.8987 26.9853C37.8987 26.9856 37.8987 26.9859 37.8987 26.9862C37.8987 26.9865 37.8987 26.9868 37.8987 26.9871C37.8987 26.9874 37.8987 26.9877 37.8987 26.988C37.8987 26.9883 37.8987 26.9886 37.8987 26.9889C37.8987 26.9892 37.8987 26.9895 37.8987 26.9898C37.8987 26.9901 37.8987 26.9904 37.8987 26.9907C37.8987 26.991 37.8987 26.9913 37.8987 26.9916C37.8987 26.9919 37.8987 26.9922 37.8987 26.9925C37.8987 26.9928 37.8987 26.9931 37.8987 26.9934C37.8987 26.9937 37.8987 26.994 37.8987 26.9943C37.8987 26.9946 37.8987 26.9949 37.8987 26.9952C37.8987 26.9955 37.8987 26.9958 37.8987 26.9961C37.8987 26.9964 37.8987 26.9967 37.8987 26.997C37.8987 26.9973 37.8987 26.9977 37.8987 26.998C37.8987 26.9983 37.8987 26.9986 37.8987 26.9989C37.8987 26.9992 37.8987 26.9995 37.8987 26.9998C37.8987 27.0001 37.8987 27.0004 37.8987 27.0007C37.8987 27.001 37.8987 27.0013 37.8987 27.0016C37.8987 27.0019 37.8987 27.0023 37.8987 27.0026C37.8987 27.0029 37.8987 27.0032 37.8987 27.0035C37.8987 27.0038 37.8987 27.0041 37.8987 27.0044C37.8987 27.0047 37.8987 27.005 37.8987 27.0053C37.8987 27.0057 37.8987 27.006 37.8987 27.0063C37.8987 27.0066 37.8987 27.0069 37.8987 27.0072C37.8987 27.0075 37.8987 27.0078 37.8987 27.0081C37.8987 27.0085 37.8987 27.0088 37.8987 27.0091C37.8987 27.0094 37.8987 27.0097 37.8987 27.01C37.8987 27.0103 37.8987 27.0106 37.8987 27.0109C37.8987 27.0113 37.8987 27.0116 37.8987 27.0119C37.8987 27.0122 37.8987 27.0125 37.8987 27.0128C37.8987 27.0131 37.8987 27.0135 37.8987 27.0138C37.8987 27.0141 37.8987 27.0144 37.8987 27.0147C37.8987 27.015 37.8987 27.0153 37.8987 27.0157C37.8987 27.016 37.8987 27.0163 37.8987 27.0166C37.8987 27.0169 37.8987 27.0172 37.8987 27.0175C37.8987 27.0179 37.8987 27.0182 37.8987 27.0185C37.8987 27.0188 37.8987 27.0191 37.8987 27.0194C37.8987 27.0198 37.8987 27.0201 37.8987 27.0204C37.8987 27.0207 37.8987 27.021 37.8987 27.0214C37.8987 27.0217 37.8987 27.022 37.8987 27.0223C37.8987 27.0226 37.8987 27.0229 37.8987 27.0233C37.8987 27.0236 37.8987 27.0239 37.8987 27.0242C37.8987 27.0245 37.8987 27.0249 37.8987 27.0252C37.8987 27.0255 37.8987 27.0258 37.8987 27.0261C37.8987 27.0265 37.8987 27.0268 37.8987 27.0271C37.8987 27.0274 37.8987 27.0277 37.8987 27.0281C37.8987 27.0284 37.8987 27.0287 37.8987 27.029C37.8987 27.0294 37.8987 27.0297 37.8987 27.03C37.8987 27.0303 37.8987 27.0306 37.8987 27.031C37.8987 27.0313 37.8987 27.0316 37.8987 27.0319C37.8987 27.0323 37.8987 27.0326 37.8987 27.0329C37.8987 27.0332 37.8987 27.0336 37.8987 27.0339C37.8987 27.0342 37.8987 27.0345 37.8987 27.0349C37.8987 27.0352 37.8987 27.0355 37.8987 27.0358C37.8987 27.0362 37.8987 27.0365 37.8987 27.0368C37.8987 27.0371 37.8987 27.0375 37.8987 27.0378C37.8987 27.0381 37.8987 27.0384 37.8987 27.0388C37.8987 27.0391 37.8987 27.0394 37.8987 27.0398C37.8987 27.0401 37.8987 27.0404 37.8987 27.0407C37.8987 27.0411 37.8987 27.0414 37.8987 27.0417C37.8987 27.042 37.8987 27.0424 37.8987 27.0427C37.8987 27.043 37.8987 27.0434 37.8987 27.0437C37.8987 27.044 37.8987 27.0444 37.8987 27.0447C37.8987 27.045 37.8987 27.0453 37.8987 27.0457C37.8987 27.046 37.8987 27.0463 37.8987 27.0467C37.8987 27.047 37.8987 27.0473 37.8987 27.0477C37.8987 27.048 37.8987 27.0483 37.8987 27.0487C37.8987 27.049 37.8987 27.0493 37.8987 27.0496C37.8987 27.05 37.8987 27.0503 37.8987 27.0506C37.8987 27.051 37.8987 27.0513 37.8987 27.0516C37.8987 27.052 37.8987 27.0523 37.8987 27.0526C37.8987 27.053 37.8987 27.0533 37.8987 27.0536C37.8987 27.054 37.8987 27.0543 37.8987 27.0546C37.8987 27.055 37.8987 27.0553 37.8987 27.0557C37.8987 27.056 37.8987 27.0563 37.8987 27.0567C37.8987 27.057 37.8987 27.0573 37.8987 27.0577C37.8987 27.058 37.8987 27.0583 37.8987 27.0587C37.8987 27.059 37.8987 27.0594 37.8987 27.0597C37.8987 27.06 37.8987 27.0604 37.8987 27.0607C37.8987 27.061 37.8987 27.0614 37.8987 27.0617C37.8987 27.0621 37.8987 27.0624 37.8987 27.0627C37.8987 27.0631 37.8987 27.0634 37.8987 27.0637C37.8987 27.0641 37.8987 27.0644 37.8987 27.0648C37.8987 27.0651 37.8987 27.0654 37.8987 27.0658C37.8987 27.0661 37.8987 27.0665 37.8987 27.0668C37.8987 27.0671 37.8987 27.0675 37.8987 27.0678C37.8987 27.0682 37.8987 27.0685 37.8987 27.0689C37.8987 27.0692 37.8987 27.0695 37.8987 27.0699C37.8987 27.0702 37.8987 27.0706 37.8987 27.0709C37.8987 27.0712 37.8987 27.0716 37.8987 27.0719C37.8987 27.0723 37.8987 27.0726 37.8987 27.073C37.8987 27.0733 37.8987 27.0737 37.8987 27.074C37.8987 27.0743 37.8987 27.0747 37.8987 27.075C37.8987 27.0754 37.8987 27.0757 37.8987 27.0761C37.8987 27.0764 37.8987 27.0768 37.8987 27.0771C37.8987 27.0774 37.8987 27.0778 37.8987 27.0781C37.8987 27.0785 37.8987 27.0788 37.8987 27.0792C37.8987 27.0795 37.8987 27.0799 37.8987 27.0802C37.8987 27.0806 37.8987 27.0809 37.8987 27.0813C37.8987 27.0816 37.8987 27.082 37.8987 27.0823C37.8987 27.0827 37.8987 27.083 37.8987 27.0833C37.8987 27.0837 37.8987 27.084 37.8987 27.0844C37.8987 27.0847 37.8987 27.0851 37.8987 27.0854C37.8987 27.0858 37.8987 27.0861 37.8987 27.0865C37.8987 27.0868 37.8987 27.0872 37.8987 27.0875C37.8987 27.0879 37.8987 27.0882 37.8987 27.0886C37.8987 27.0889 37.8987 27.0893 37.8987 27.0896C37.8987 27.09 37.8987 27.0903 37.8987 27.0907C37.8987 27.0911 37.8987 27.0914 37.8987 27.0918C37.8987 27.0921 37.8987 27.0925 37.8987 27.0928C37.8987 27.0932 37.8987 27.0935 37.8987 27.0939C37.8987 27.0942 37.8987 27.0946 37.8987 27.0949C37.8987 27.0953 37.8987 27.0956 37.8987 27.096C37.8987 27.0964 37.8987 27.0967 37.8987 27.0971C37.8987 27.0974 37.8987 27.0978 37.8987 27.0981C37.8987 27.0985 37.8987 27.0988 37.8987 27.0992C37.8987 27.0996 37.8987 27.0999 37.8987 27.1003C37.8987 27.1006 37.8987 27.101 37.8987 27.1013C37.8987 27.1017 37.8987 27.102 37.8987 27.1024C37.8987 27.1028 37.8987 27.1031 37.8987 27.1035C37.8987 27.1038 37.8987 27.1042 37.8987 27.1046C37.8987 27.1049 37.8987 27.1053 37.8987 27.1056C37.8987 27.106 37.8987 27.1063 37.8987 27.1067C37.8987 27.1071 37.8987 27.1074 37.8987 27.1078C37.8987 27.1081 37.8987 27.1085 37.8987 27.1089C37.8987 27.1092 37.8987 27.1096 37.8987 27.1099C37.8987 27.1103 37.8987 27.1107 37.8987 27.111C37.8987 27.1114 37.8987 27.1118 37.8987 27.1121C37.8987 27.1125 37.8987 27.1128 37.8987 27.1132C37.8987 27.1136 37.8987 27.1139 37.8987 27.1143H39.3273C39.3273 27.1139 39.3273 27.1136 39.3273 27.1132C39.3273 27.1128 39.3273 27.1125 39.3273 27.1121C39.3273 27.1118 39.3273 27.1114 39.3273 27.111C39.3273 27.1107 39.3273 27.1103 39.3273 27.1099C39.3273 27.1096 39.3273 27.1092 39.3273 27.1089C39.3273 27.1085 39.3273 27.1081 39.3273 27.1078C39.3273 27.1074 39.3273 27.1071 39.3273 27.1067C39.3273 27.1063 39.3273 27.106 39.3273 27.1056C39.3273 27.1053 39.3273 27.1049 39.3273 27.1046C39.3273 27.1042 39.3273 27.1038 39.3273 27.1035C39.3273 27.1031 39.3273 27.1028 39.3273 27.1024C39.3273 27.102 39.3273 27.1017 39.3273 27.1013C39.3273 27.101 39.3273 27.1006 39.3273 27.1003C39.3273 27.0999 39.3273 27.0996 39.3273 27.0992C39.3273 27.0988 39.3273 27.0985 39.3273 27.0981C39.3273 27.0978 39.3273 27.0974 39.3273 27.0971C39.3273 27.0967 39.3273 27.0964 39.3273 27.096C39.3273 27.0956 39.3273 27.0953 39.3273 27.0949C39.3273 27.0946 39.3273 27.0942 39.3273 27.0939C39.3273 27.0935 39.3273 27.0932 39.3273 27.0928C39.3273 27.0925 39.3273 27.0921 39.3273 27.0918C39.3273 27.0914 39.3273 27.0911 39.3273 27.0907C39.3273 27.0903 39.3273 27.09 39.3273 27.0896C39.3273 27.0893 39.3273 27.0889 39.3273 27.0886C39.3273 27.0882 39.3273 27.0879 39.3273 27.0875C39.3273 27.0872 39.3273 27.0868 39.3273 27.0865C39.3273 27.0861 39.3273 27.0858 39.3273 27.0854C39.3273 27.0851 39.3273 27.0847 39.3273 27.0844C39.3273 27.084 39.3273 27.0837 39.3273 27.0833C39.3273 27.083 39.3273 27.0827 39.3273 27.0823C39.3273 27.082 39.3273 27.0816 39.3273 27.0813C39.3273 27.0809 39.3273 27.0806 39.3273 27.0802C39.3273 27.0799 39.3273 27.0795 39.3273 27.0792C39.3273 27.0788 39.3273 27.0785 39.3273 27.0781C39.3273 27.0778 39.3273 27.0774 39.3273 27.0771C39.3273 27.0768 39.3273 27.0764 39.3273 27.0761C39.3273 27.0757 39.3273 27.0754 39.3273 27.075C39.3273 27.0747 39.3273 27.0743 39.3273 27.074C39.3273 27.0737 39.3273 27.0733 39.3273 27.073C39.3273 27.0726 39.3273 27.0723 39.3273 27.0719C39.3273 27.0716 39.3273 27.0712 39.3273 27.0709C39.3273 27.0706 39.3273 27.0702 39.3273 27.0699C39.3273 27.0695 39.3273 27.0692 39.3273 27.0689C39.3273 27.0685 39.3273 27.0682 39.3273 27.0678C39.3273 27.0675 39.3273 27.0671 39.3273 27.0668C39.3273 27.0665 39.3273 27.0661 39.3273 27.0658C39.3273 27.0654 39.3273 27.0651 39.3273 27.0648C39.3273 27.0644 39.3273 27.0641 39.3273 27.0637C39.3273 27.0634 39.3273 27.0631 39.3273 27.0627C39.3273 27.0624 39.3273 27.0621 39.3273 27.0617C39.3273 27.0614 39.3273 27.061 39.3273 27.0607C39.3273 27.0604 39.3273 27.06 39.3273 27.0597C39.3273 27.0594 39.3273 27.059 39.3273 27.0587C39.3273 27.0583 39.3273 27.058 39.3273 27.0577C39.3273 27.0573 39.3273 27.057 39.3273 27.0567C39.3273 27.0563 39.3273 27.056 39.3273 27.0557C39.3273 27.0553 39.3273 27.055 39.3273 27.0546C39.3273 27.0543 39.3273 27.054 39.3273 27.0536C39.3273 27.0533 39.3273 27.053 39.3273 27.0526C39.3273 27.0523 39.3273 27.052 39.3273 27.0516C39.3273 27.0513 39.3273 27.051 39.3273 27.0506C39.3273 27.0503 39.3273 27.05 39.3273 27.0496C39.3273 27.0493 39.3273 27.049 39.3273 27.0487C39.3273 27.0483 39.3273 27.048 39.3273 27.0477C39.3273 27.0473 39.3273 27.047 39.3273 27.0467C39.3273 27.0463 39.3273 27.046 39.3273 27.0457C39.3273 27.0453 39.3273 27.045 39.3273 27.0447C39.3273 27.0444 39.3273 27.044 39.3273 27.0437C39.3273 27.0434 39.3273 27.043 39.3273 27.0427C39.3273 27.0424 39.3273 27.042 39.3273 27.0417C39.3273 27.0414 39.3273 27.0411 39.3273 27.0407C39.3273 27.0404 39.3273 27.0401 39.3273 27.0398C39.3273 27.0394 39.3273 27.0391 39.3273 27.0388C39.3273 27.0384 39.3273 27.0381 39.3273 27.0378C39.3273 27.0375 39.3273 27.0371 39.3273 27.0368C39.3273 27.0365 39.3273 27.0362 39.3273 27.0358C39.3273 27.0355 39.3273 27.0352 39.3273 27.0349C39.3273 27.0345 39.3273 27.0342 39.3273 27.0339C39.3273 27.0336 39.3273 27.0332 39.3273 27.0329C39.3273 27.0326 39.3273 27.0323 39.3273 27.0319C39.3273 27.0316 39.3273 27.0313 39.3273 27.031C39.3273 27.0306 39.3273 27.0303 39.3273 27.03C39.3273 27.0297 39.3273 27.0294 39.3273 27.029C39.3273 27.0287 39.3273 27.0284 39.3273 27.0281C39.3273 27.0277 39.3273 27.0274 39.3273 27.0271C39.3273 27.0268 39.3273 27.0265 39.3273 27.0261C39.3273 27.0258 39.3273 27.0255 39.3273 27.0252C39.3273 27.0249 39.3273 27.0245 39.3273 27.0242C39.3273 27.0239 39.3273 27.0236 39.3273 27.0233C39.3273 27.0229 39.3273 27.0226 39.3273 27.0223C39.3273 27.022 39.3273 27.0217 39.3273 27.0214C39.3273 27.021 39.3273 27.0207 39.3273 27.0204C39.3273 27.0201 39.3273 27.0198 39.3273 27.0194C39.3273 27.0191 39.3273 27.0188 39.3273 27.0185C39.3273 27.0182 39.3273 27.0179 39.3273 27.0175C39.3273 27.0172 39.3273 27.0169 39.3273 27.0166C39.3273 27.0163 39.3273 27.016 39.3273 27.0157C39.3273 27.0153 39.3273 27.015 39.3273 27.0147C39.3273 27.0144 39.3273 27.0141 39.3273 27.0138C39.3273 27.0135 39.3273 27.0131 39.3273 27.0128C39.3273 27.0125 39.3273 27.0122 39.3273 27.0119C39.3273 27.0116 39.3273 27.0113 39.3273 27.0109C39.3273 27.0106 39.3273 27.0103 39.3273 27.01C39.3273 27.0097 39.3273 27.0094 39.3273 27.0091C39.3273 27.0088 39.3273 27.0085 39.3273 27.0081C39.3273 27.0078 39.3273 27.0075 39.3273 27.0072C39.3273 27.0069 39.3273 27.0066 39.3273 27.0063C39.3273 27.006 39.3273 27.0057 39.3273 27.0053C39.3273 27.005 39.3273 27.0047 39.3273 27.0044C39.3273 27.0041 39.3273 27.0038 39.3273 27.0035C39.3273 27.0032 39.3273 27.0029 39.3273 27.0026C39.3273 27.0023 39.3273 27.0019 39.3273 27.0016C39.3273 27.0013 39.3273 27.001 39.3273 27.0007C39.3273 27.0004 39.3273 27.0001 39.3273 26.9998C39.3273 26.9995 39.3273 26.9992 39.3273 26.9989C39.3273 26.9986 39.3273 26.9983 39.3273 26.998C39.3273 26.9977 39.3273 26.9973 39.3273 26.997C39.3273 26.9967 39.3273 26.9964 39.3273 26.9961C39.3273 26.9958 39.3273 26.9955 39.3273 26.9952C39.3273 26.9949 39.3273 26.9946 39.3273 26.9943C39.3273 26.994 39.3273 26.9937 39.3273 26.9934C39.3273 26.9931 39.3273 26.9928 39.3273 26.9925C39.3273 26.9922 39.3273 26.9919 39.3273 26.9916C39.3273 26.9913 39.3273 26.991 39.3273 26.9907C39.3273 26.9904 39.3273 26.9901 39.3273 26.9898C39.3273 26.9895 39.3273 26.9892 39.3273 26.9889C39.3273 26.9886 39.3273 26.9883 39.3273 26.988C39.3273 26.9877 39.3273 26.9874 39.3273 26.9871C39.3273 26.9868 39.3273 26.9865 39.3273 26.9862C39.3273 26.9859 39.3273 26.9856 39.3273 26.9853C39.3273 26.985 39.3273 26.9847 39.3273 26.9844C39.3273 26.9841 39.3273 26.9838 39.3273 26.9835C39.3273 26.9832 39.3273 26.9829 39.3273 26.9826C39.3273 26.9823 39.3273 26.982 39.3273 26.9817C39.3273 26.9814 39.3273 26.9811 39.3273 26.9808C39.3273 26.9805 39.3273 26.9802 39.3273 26.9799C39.3273 26.9796 39.3273 26.9793 39.3273 26.979C39.3273 26.9787 39.3273 26.9784 39.3273 26.9781C39.3273 26.9778 39.3273 26.9775 39.3273 26.9772C39.3273 26.9769 39.3273 26.9767 39.3273 26.9764C39.3273 26.9761 39.3273 26.9758 39.3273 26.9755C39.3273 26.9752 39.3273 26.9749 39.3273 26.9746C39.3273 26.9743 39.3273 26.974 39.3273 26.9737C39.3273 26.9734 39.3273 26.9731 39.3273 26.9728C39.3273 26.9726 39.3273 26.9723 39.3273 26.972C39.3273 26.9717 39.3273 26.9714 39.3273 26.9711C39.3273 26.9708 39.3273 26.9705 39.3273 26.9702C39.3273 26.9699 39.3273 26.9696 39.3273 26.9694C39.3273 26.9691 39.3273 26.9688 39.3273 26.9685C39.3273 26.9682 39.3273 26.9679 39.3273 26.9676C39.3273 26.9673 39.3273 26.967 39.3273 26.9667C39.3273 26.9665 39.3273 26.9662 39.3273 26.9659C39.3273 26.9656 39.3273 26.9653 39.3273 26.965C39.3273 26.9647 39.3273 26.9644 39.3273 26.9642C39.3273 26.9639 39.3273 26.9636 39.3273 26.9633C39.3273 26.963 39.3273 26.9627 39.3273 26.9624C39.3273 26.9621 39.3273 26.9619 39.3273 26.9616C39.3273 26.9613 39.3273 26.961 39.3273 26.9607C39.3273 26.9604 39.3273 26.9602 39.3273 26.9599C39.3273 26.9596 39.3273 26.9593 39.3273 26.959C39.3273 26.9587 39.3273 26.9584 39.3273 26.9582C39.3273 26.9579 39.3273 26.9576 39.3273 26.9573C39.3273 26.957 39.3273 26.9567 39.3273 26.9565C39.3273 26.9562 39.3273 26.9559 39.3273 26.9556C39.3273 26.9553 39.3273 26.955 39.3273 26.9548C39.3273 26.9545 39.3273 26.9542 39.3273 26.9539C39.3273 26.9536 39.3273 26.9534 39.3273 26.9531C39.3273 26.9528 39.3273 26.9525 39.3273 26.9522C39.3273 26.952 39.3273 26.9517 39.3273 26.9514C39.3273 26.9511 39.3273 26.9508 39.3273 26.9506C39.3273 26.9503 39.3273 26.95 39.3273 26.9497C39.3273 26.9494 39.3273 26.9492 39.3273 26.9489C39.3273 26.9486 39.3273 26.9483 39.3273 26.9481C39.3273 26.9478 39.3273 26.9475 39.3273 26.9472C39.3273 26.9469 39.3273 26.9467 39.3273 26.9464C39.3273 26.9461 39.3273 26.9458 39.3273 26.9456C39.3273 26.9453 39.3273 26.945 39.3273 26.9447C39.3273 26.9445 39.3273 26.9442 39.3273 26.9439C39.3273 26.9436 39.3273 26.9434 39.3273 26.9431C39.3273 26.9428 39.3273 26.9425 39.3273 26.9423C39.3273 26.942 39.3273 26.9417 39.3273 26.9414C39.3273 26.9412 39.3273 26.9409 39.3273 26.9406C39.3273 26.9403 39.3273 26.9401 39.3273 26.9398C39.3273 26.9395 39.3273 26.9392 39.3273 26.939C39.3273 26.9387 39.3273 26.9384 39.3273 26.9382C39.3273 26.9379 39.3273 26.9376 39.3273 26.9373C39.3273 26.9371 39.3273 26.9368 39.3273 26.9365C39.3273 26.9363 39.3273 26.936 39.3273 26.9357C39.3273 26.9354 39.3273 26.9352 39.3273 26.9349C39.3273 26.9346 39.3273 26.9344 39.3273 26.9341C39.3273 26.9338 39.3273 26.9336 39.3273 26.9333C39.3273 26.933 39.3273 26.9327 39.3273 26.9325C39.3273 26.9322 39.3273 26.9319 39.3273 26.9317C39.3273 26.9314 39.3273 26.9311 39.3273 26.9309C39.3273 26.9306 39.3273 26.9303 39.3273 26.9301C39.3273 26.9298 39.3273 26.9295 39.3273 26.9293C39.3273 26.929 39.3273 26.9287 39.3273 26.9285C39.3273 26.9282 39.3273 26.9279 39.3273 26.9277C39.3273 26.9274 39.3273 26.9271 39.3273 26.9269C39.3273 26.9266 39.3273 26.9263 39.3273 26.9261C39.3273 26.9258 39.3273 26.9255 39.3273 26.9253C39.3273 26.925 39.3273 26.9248 39.3273 26.9245C39.3273 26.9242 39.3273 26.924 39.3273 26.9237C39.3273 26.9234 39.3273 26.9232 39.3273 26.9229C39.3273 26.9227 39.3273 26.9224 39.3273 26.9221C39.3273 26.9219 39.3273 26.9216 39.3273 26.9213C39.3273 26.9211 39.3273 26.9208 39.3273 26.9206C39.3273 26.9203 39.3273 26.92 39.3273 26.9198C39.3273 26.9195 39.3273 26.9193 39.3273 26.919C39.3273 26.9187 39.3273 26.9185 39.3273 26.9182C39.3273 26.918 39.3273 26.9177 39.3273 26.9174C39.3273 26.9172 39.3273 26.9169 39.3273 26.9167C39.3273 26.9164 39.3273 26.9161 39.3273 26.9159C39.3273 26.9156 39.3273 26.9154 39.3273 26.9151C39.3273 26.9149 39.3273 26.9146 39.3273 26.9143C39.3273 26.9141 39.3273 26.9138 39.3273 26.9136C39.3273 26.9133 39.3273 26.9131 39.3273 26.9128C39.3273 26.9125 39.3273 26.9123 39.3273 26.912C39.3273 26.9118 39.3273 26.9115 39.3273 26.9113C39.3273 26.911 39.3273 26.9108 39.3273 26.9105C39.3273 26.9102 39.3273 26.91 39.3273 26.9097C39.3273 26.9095 39.3273 26.9092 39.3273 26.909C39.3273 26.9087 39.3273 26.9085 39.3273 26.9082C39.3273 26.908 39.3273 26.9077 39.3273 26.9074C39.3273 26.9072 39.3273 26.9069 39.3273 26.9067C39.3273 26.9064 39.3273 26.9062 39.3273 26.9059C39.3273 26.9057 39.3273 26.9054 39.3273 26.9052C39.3273 26.9049 39.3273 26.9047 39.3273 26.9044C39.3273 26.9042 39.3273 26.9039 39.3273 26.9037C39.3273 26.9034 39.3273 26.9032 39.3273 26.9029C39.3273 26.9027 39.3273 26.9024 39.3273 26.9022C39.3273 26.9019 39.3273 26.9017 39.3273 26.9014C39.3273 26.9012 39.3273 26.9009 39.3273 26.9007C39.3273 26.9004 39.3273 26.9002 39.3273 26.8999C39.3273 26.8997 39.3273 26.8994 39.3273 26.8992C39.3273 26.8989 39.3273 26.8987 39.3273 26.8985C39.3273 26.8982 39.3273 26.898 39.3273 26.8977C39.3273 26.8975 39.3273 26.8972 39.3273 26.897C39.3273 26.8967 39.3273 26.8965 39.3273 26.8962C39.3273 26.896 39.3273 26.8957 39.3273 26.8955C39.3273 26.8953 39.3273 26.895 39.3273 26.8948C39.3273 26.8945 39.3273 26.8943 39.3273 26.894C39.3273 26.8938 39.3273 26.8935 39.3273 26.8933C39.3273 26.8931 39.3273 26.8928 39.3273 26.8926C39.3273 26.8923 39.3273 26.8921 39.3273 26.8918C39.3273 26.8916 39.3273 26.8914 39.3273 26.8911C39.3273 26.8909 39.3273 26.8906 39.3273 26.8904C39.3273 26.8901 39.3273 26.8899 39.3273 26.8897C39.3273 26.8894 39.3273 26.8892 39.3273 26.8889C39.3273 26.8887 39.3273 26.8885 39.3273 26.8882C39.3273 26.888 39.3273 26.8877 39.3273 26.8875C39.3273 26.8873 39.3273 26.887 39.3273 26.8868C39.3273 26.8865 39.3273 26.8863 39.3273 26.8861C39.3273 26.8858 39.3273 26.8856 39.3273 26.8854C39.3273 26.8851 39.3273 26.8849 39.3273 26.8846C39.3273 26.8844 39.3273 26.8842 39.3273 26.8839C39.3273 26.8837 39.3273 26.8835 39.3273 26.8832C39.3273 26.883 39.3273 26.8827 39.3273 26.8825C39.3273 26.8823 39.3273 26.882 39.3273 26.8818C39.3273 26.8816 39.3273 26.8813 39.3273 26.8811C39.3273 26.8809 39.3273 26.8806 39.3273 26.8804C39.3273 26.8802 39.3273 26.8799 39.3273 26.8797C39.3273 26.8795 39.3273 26.8792 39.3273 26.879C39.3273 26.8787 39.3273 26.8785 39.3273 26.8783C39.3273 26.878 39.3273 26.8778 39.3273 26.8776C39.3273 26.8774 39.3273 26.8771 39.3273 26.8769C39.3273 26.8767 39.3273 26.8764 39.3273 26.8762C39.3273 26.876 39.3273 26.8757 39.3273 26.8755C39.3273 26.8753 39.3273 26.875 39.3273 26.8748C39.3273 26.8746 39.3273 26.8743 39.3273 26.8741C39.3273 26.8739 39.3273 26.8737 39.3273 26.8734C39.3273 26.8732 39.3273 26.873 39.3273 26.8727C39.3273 26.8725 39.3273 26.8723 39.3273 26.872C39.3273 26.8718 39.3273 26.8716 39.3273 26.8714C39.3273 26.8711 39.3273 26.8709 39.3273 26.8707C39.3273 26.8704 39.3273 26.8702 39.3273 26.87C39.3273 26.8698 39.3273 26.8695 39.3273 26.8693C39.3273 26.8691 39.3273 26.8689 39.3273 26.8686C39.3273 26.8684 39.3273 26.8682 39.3273 26.868C39.3273 26.8677 39.3273 26.8675 39.3273 26.8673C39.3273 26.8671 39.3273 26.8668 39.3273 26.8666C39.3273 26.8664 39.3273 26.8662 39.3273 26.8659C39.3273 26.8657 39.3273 26.8655 39.3273 26.8653C39.3273 26.865 39.3273 26.8648 39.3273 26.8646C39.3273 26.8644 39.3273 26.8641 39.3273 26.8639C39.3273 26.8637 39.3273 26.8635 39.3273 26.8632C39.3273 26.863 39.3273 26.8628 39.3273 26.8626C39.3273 26.8624 39.3273 26.8621 39.3273 26.8619C39.3273 26.8617 39.3273 26.8615 39.3273 26.8612C39.3273 26.861 39.3273 26.8608 39.3273 26.8606C39.3273 26.8604 39.3273 26.8601 39.3273 26.8599C39.3273 26.8597 39.3273 26.8595 39.3273 26.8593C39.3273 26.859 39.3273 26.8588 39.3273 26.8586C39.3273 26.8584 39.3273 26.8582 39.3273 26.858C39.3273 26.8577 39.3273 26.8575 39.3273 26.8573C39.3273 26.8571 39.3273 26.8569 39.3273 26.8566C39.3273 26.8564 39.3273 26.8562 39.3273 26.856C39.3273 26.8558 39.3273 26.8556 39.3273 26.8553C39.3273 26.8551 39.3273 26.8549 39.3273 26.8547C39.3273 26.8545 39.3273 26.8543 39.3273 26.854C39.3273 26.8538 39.3273 26.8536 39.3273 26.8534C39.3273 26.8532 39.3273 26.853 39.3273 26.8528C39.3273 26.8525 39.3273 26.8523 39.3273 26.8521C39.3273 26.8519 39.3273 26.8517 39.3273 26.8515C39.3273 26.8513 39.3273 26.851 39.3273 26.8508C39.3273 26.8506 39.3273 26.8504 39.3273 26.8502C39.3273 26.85 39.3273 26.8498 39.3273 26.8496C39.3273 26.8493 39.3273 26.8491 39.3273 26.8489C39.3273 26.8487 39.3273 26.8485 39.3273 26.8483C39.3273 26.8481 39.3273 26.8479 39.3273 26.8477C39.3273 26.8474 39.3273 26.8472 39.3273 26.847C39.3273 26.8468 39.3273 26.8466 39.3273 26.8464C39.3273 26.8462 39.3273 26.846 39.3273 26.8458C39.3273 26.8456 39.3273 26.8453 39.3273 26.8451C39.3273 26.8449 39.3273 26.8447 39.3273 26.8445C39.3273 26.8443 39.3273 26.8441 39.3273 26.8439C39.3273 26.8437 39.3273 26.8435 39.3273 26.8433C39.3273 26.8431 39.3273 26.8429 39.3273 26.8426C39.3273 26.8424 39.3273 26.8422 39.3273 26.842C39.3273 26.8418 39.3273 26.8416 39.3273 26.8414C39.3273 26.8412 39.3273 26.841 39.3273 26.8408C39.3273 26.8406 39.3273 26.8404 39.3273 26.8402C39.3273 26.84 39.3273 26.8398 39.3273 26.8396C39.3273 26.8394 39.3273 26.8392 39.3273 26.8389C39.3273 26.8387 39.3273 26.8385 39.3273 26.8383C39.3273 26.8381 39.3273 26.8379 39.3273 26.8377C39.3273 26.8375 39.3273 26.8373 39.3273 26.8371C39.3273 26.8369 39.3273 26.8367 39.3273 26.8365C39.3273 26.8363 39.3273 26.8361 39.3273 26.8359C39.3273 26.8357 39.3273 26.8355 39.3273 26.8353C39.3273 26.8351 39.3273 26.8349 39.3273 26.8347C39.3273 26.8345 39.3273 26.8343 39.3273 26.8341C39.3273 26.8339 39.3273 26.8337 39.3273 26.8335C39.3273 26.8333 39.3273 26.8331 39.3273 26.8329C39.3273 26.8327 39.3273 26.8325 39.3273 26.8323C39.3273 26.8321 39.3273 26.8319 39.3273 26.8317C39.3273 26.8315 39.3273 26.8313 39.3273 26.8311C39.3273 26.8309 39.3273 26.8307 39.3273 26.8305C39.3273 26.8303 39.3273 26.8301 39.3273 26.8299C39.3273 26.8297 39.3273 26.8295 39.3273 26.8294C39.3273 26.8292 39.3273 26.829 39.3273 26.8288C39.3273 26.8286 39.3273 26.8284 39.3273 26.8282C39.3273 26.828 39.3273 26.8278 39.3273 26.8276C39.3273 26.8274 39.3273 26.8272 39.3273 26.827C39.3273 26.8268 39.3273 26.8266 39.3273 26.8264C39.3273 26.8262 39.3273 26.826 39.3273 26.8259C39.3273 26.8257 39.3273 26.8255 39.3273 26.8253C39.3273 26.8251 39.3273 26.8249 39.3273 26.8247C39.3273 26.8245 39.3273 26.8243 39.3273 26.8241C39.3273 26.8239 39.3273 26.8237 39.3273 26.8235C39.3273 26.8234 39.3273 26.8232 39.3273 26.823C39.3273 26.8228 39.3273 26.8226 39.3273 26.8224C39.3273 26.8222 39.3273 26.822 39.3273 26.8218C39.3273 26.8216 39.3273 26.8215 39.3273 26.8213C39.3273 26.8211 39.3273 26.8209 39.3273 26.8207C39.3273 26.8205 39.3273 26.8203 39.3273 26.8201C39.3273 26.8199 39.3273 26.8198 39.3273 26.8196C39.3273 26.8194 39.3273 26.8192 39.3273 26.819C39.3273 26.8188 39.3273 26.8186 39.3273 26.8184C39.3273 26.8183 39.3273 26.8181 39.3273 26.8179C39.3273 26.8177 39.3273 26.8175 39.3273 26.8173C39.3273 26.8171 39.3273 26.817 39.3273 26.8168C39.3273 26.8166 39.3273 26.8164 39.3273 26.8162C39.3273 26.816 39.3273 26.8159 39.3273 26.8157C39.3273 26.8155 39.3273 26.8153 39.3273 26.8151C39.3273 26.8149 39.3273 26.8147 39.3273 26.8146C39.3273 26.8144 39.3273 26.8142 39.3273 26.814C39.3273 26.8138 39.3273 26.8137 39.3273 26.8135C39.3273 26.8133 39.3273 26.8131 39.3273 26.8129C39.3273 26.8127 39.3273 26.8126 39.3273 26.8124C39.3273 26.8122 39.3273 26.812 39.3273 26.8118C39.3273 26.8117 39.3273 26.8115 39.3273 26.8113C39.3273 26.8111 39.3273 26.8109 39.3273 26.8108C39.3273 26.8106 39.3273 26.8104 39.3273 26.8102C39.3273 26.81 39.3273 26.8099 39.3273 26.8097C39.3273 26.8095 39.3273 26.8093 39.3273 26.8091C39.3273 26.809 39.3273 26.8088 39.3273 26.8086C39.3273 26.8084 39.3273 26.8083 39.3273 26.8081C39.3273 26.8079 39.3273 26.8077 39.3273 26.8075C39.3273 26.8074 39.3273 26.8072 39.3273 26.807C39.3273 26.8068 39.3273 26.8067 39.3273 26.8065C39.3273 26.8063 39.3273 26.8061 39.3273 26.806C39.3273 26.8058 39.3273 26.8056 39.3273 26.8054C39.3273 26.8053 39.3273 26.8051 39.3273 26.8049C39.3273 26.8047 39.3273 26.8046 39.3273 26.8044C39.3273 26.8042 39.3273 26.804 39.3273 26.8039C39.3273 26.8037 39.3273 26.8035 39.3273 26.8033C39.3273 26.8032 39.3273 26.803 39.3273 26.8028C39.3273 26.8027 39.3273 26.8025 39.3273 26.8023C39.3273 26.8021 39.3273 26.802 39.3273 26.8018C39.3273 26.8016 39.3273 26.8015 39.3273 26.8013C39.3273 26.8011 39.3273 26.8009 39.3273 26.8008C39.3273 26.8006 39.3273 26.8004 39.3273 26.8003C39.3273 26.8001 39.3273 26.7999 39.3273 26.7998C39.3273 26.7996 39.3273 26.7994 39.3273 26.7992C39.3273 26.7991 39.3273 26.7989 39.3273 26.7987C39.3273 26.7986 39.3273 26.7984 39.3273 26.7982C39.3273 26.7981 39.3273 26.7979 39.3273 26.7977C39.3273 26.7976 39.3273 26.7974 39.3273 26.7972C39.3273 26.7971 39.3273 26.7969 39.3273 26.7967C39.3273 26.7966 39.3273 26.7964 39.3273 26.7962C39.3273 26.7961 39.3273 26.7959 39.3273 26.7957C39.3273 26.7956 39.3273 26.7954 39.3273 26.7952C39.3273 26.7951 39.3273 26.7949 39.3273 26.7947C39.3273 26.7946 39.3273 26.7944 39.3273 26.7942C39.3273 26.7941 39.3273 26.7939 39.3273 26.7938C39.3273 26.7936 39.3273 26.7934 39.3273 26.7933C39.3273 26.7931 39.3273 26.7929 39.3273 26.7928C39.3273 26.7926 39.3273 26.7925 39.3273 26.7923C39.3273 26.7921 39.3273 26.792 39.3273 26.7918C39.3273 26.7916 39.3273 26.7915 39.3273 26.7913C39.3273 26.7912 39.3273 26.791 39.3273 26.7908C39.3273 26.7907 39.3273 26.7905 39.3273 26.7904C39.3273 26.7902 39.3273 26.79 39.3273 26.7899C39.3273 26.7897 39.3273 26.7896 39.3273 26.7894C39.3273 26.7892 39.3273 26.7891 39.3273 26.7889C39.3273 26.7888 39.3273 26.7886 39.3273 26.7884C39.3273 26.7883 39.3273 26.7881 39.3273 26.788C39.3273 26.7878 39.3273 26.7877 39.3273 26.7875C39.3273 26.7873 39.3273 26.7872 39.3273 26.787C39.3273 26.7869 39.3273 26.7867 39.3273 26.7866C39.3273 26.7864 39.3273 26.7862 39.3273 26.7861C39.3273 26.7859 39.3273 26.7858 39.3273 26.7856C39.3273 26.7855 39.3273 26.7853 39.3273 26.7852C39.3273 26.785 39.3273 26.7849 39.3273 26.7847C39.3273 26.7845 39.3273 26.7844 39.3273 26.7842C39.3273 26.7841 39.3273 26.7839 39.3273 26.7838C39.3273 26.7836 39.3273 26.7835 39.3273 26.7833C39.3273 26.7832 39.3273 26.783 39.3273 26.7829C39.3273 26.7827 39.3273 26.7826 39.3273 26.7824C39.3273 26.7822 39.3273 26.7821 39.3273 26.7819C39.3273 26.7818 39.3273 26.7816 39.3273 26.7815C39.3273 26.7813 39.3273 26.7812 39.3273 26.781C39.3273 26.7809 39.3273 26.7807 39.3273 26.7806C39.3273 26.7804 39.3273 26.7803 39.3273 26.7801C39.3273 26.78 39.3273 26.7798 39.3273 26.7797C39.3273 26.7795 39.3273 26.7794 39.3273 26.7792C39.3273 26.7791 39.3273 26.779 39.3273 26.7788C39.3273 26.7787 39.3273 26.7785 39.3273 26.7784C39.3273 26.7782 39.3273 26.7781 39.3273 26.7779C39.3273 26.7778 39.3273 26.7776 39.3273 26.7775C39.3273 26.7773 39.3273 26.7772 39.3273 26.777C39.3273 26.7769 39.3273 26.7768 39.3273 26.7766C39.3273 26.7765 39.3273 26.7763 39.3273 26.7762C39.3273 26.776 39.3273 26.7759 39.3273 26.7757C39.3273 26.7756 39.3273 26.7754 39.3273 26.7753C39.3273 26.7752 39.3273 26.775 39.3273 26.7749C39.3273 26.7747 39.3273 26.7746 39.3273 26.7744C39.3273 26.7743 39.3273 26.7742 39.3273 26.774C39.3273 26.7739 39.3273 26.7737 39.3273 26.7736C39.3273 26.7734 39.3273 26.7733 39.3273 26.7732C39.3273 26.773 39.3273 26.7729 39.3273 26.7727C39.3273 26.7726 39.3273 26.7725 39.3273 26.7723C39.3273 26.7722 39.3273 26.772 39.3273 26.7719C39.3273 26.7718 39.3273 26.7716 39.3273 26.7715C39.3273 26.7713 39.3273 26.7712 39.3273 26.7711C39.3273 26.7709 39.3273 26.7708 39.3273 26.7706C39.3273 26.7705 39.3273 26.7704 39.3273 26.7702C39.3273 26.7701 39.3273 26.7699 39.3273 26.7698C39.3273 26.7697 39.3273 26.7695 39.3273 26.7694C39.3273 26.7693 39.3273 26.7691 39.3273 26.769C39.3273 26.7689 39.3273 26.7687 39.3273 26.7686C39.3273 26.7684 39.3273 26.7683 39.3273 26.7682C39.3273 26.768 39.3273 26.7679 39.3273 26.7678C39.3273 26.7676 39.3273 26.7675 39.3273 26.7674C39.3273 26.7672 39.3273 26.7671 39.3273 26.767C39.3273 26.7668 39.3273 26.7667 39.3273 26.7666C39.3273 26.7664 39.3273 26.7663 39.3273 26.7662C39.3273 26.766 39.3273 26.7659 39.3273 26.7658C39.3273 26.7656 39.3273 26.7655 39.3273 26.7654C39.3273 26.7652 39.3273 26.7651 39.3273 26.765C39.3273 26.7648 39.3273 26.7647 39.3273 26.7646C39.3273 26.7644 39.3273 26.7643 39.3273 26.7642C39.3273 26.764 39.3273 26.7639 39.3273 26.7638C39.3273 26.7637 39.3273 26.7635 39.3273 26.7634C39.3273 26.7633 39.3273 26.7631 39.3273 26.763C39.3273 26.7629 39.3273 26.7627 39.3273 26.7626C39.3273 26.7625 39.3273 26.7624 39.3273 26.7622C39.3273 26.7621 39.3273 26.762 39.3273 26.7618C39.3273 26.7617 39.3273 26.7616 39.3273 26.7615C39.3273 26.7613 39.3273 26.7612 39.3273 26.7611C39.3273 26.761 39.3273 26.7608 39.3273 26.7607C39.3273 26.7606 39.3273 26.7605 39.3273 26.7603C39.3273 26.7602 39.3273 26.7601 39.3273 26.76C39.3273 26.7598 39.3273 26.7597 39.3273 26.7596C39.3273 26.7595 39.3273 26.7593 39.3273 26.7592C39.3273 26.7591 39.3273 26.759 39.3273 26.7588C39.3273 26.7587 39.3273 26.7586 39.3273 26.7585C39.3273 26.7583 39.3273 26.7582 39.3273 26.7581C39.3273 26.758 39.3273 26.7578 39.3273 26.7577C39.3273 26.7576 39.3273 26.7575 39.3273 26.7574C39.3273 26.7572 39.3273 26.7571 39.3273 26.757C39.3273 26.7569 39.3273 26.7567 39.3273 26.7566C39.3273 26.7565 39.3273 26.7564 39.3273 26.7563C39.3273 26.7561 39.3273 26.756 39.3273 26.7559C39.3273 26.7558 39.3273 26.7557 39.3273 26.7555C39.3273 26.7554 39.3273 26.7553 39.3273 26.7552C39.3273 26.7551 39.3273 26.7549 39.3273 26.7548C39.3273 26.7547 39.3273 26.7546 39.3273 26.7545C39.3273 26.7544 39.3273 26.7542 39.3273 26.7541C39.3273 26.754 39.3273 26.7539 39.3273 26.7538C39.3273 26.7537 39.3273 26.7535 39.3273 26.7534C39.3273 26.7533 39.3273 26.7532 39.3273 26.7531C39.3273 26.753 39.3273 26.7528 39.3273 26.7527C39.3273 26.7526 39.3273 26.7525 39.3273 26.7524C39.3273 26.7523 39.3273 26.7521 39.3273 26.752C39.3273 26.7519 39.3273 26.7518 39.3273 26.7517C39.3273 26.7516 39.3273 26.7515 39.3273 26.7514C39.3273 26.7512 39.3273 26.7511 39.3273 26.751C39.3273 26.7509 39.3273 26.7508 39.3273 26.7507C39.3273 26.7506 39.3273 26.7504 39.3273 26.7503C39.3273 26.7502 39.3273 26.7501 39.3273 26.75H37.8987ZM37.9012 27.1736C37.9133 27.3193 37.9273 27.6889 37.9418 28.3095L39.37 28.2762C39.3558 27.6683 39.3412 27.2521 39.3248 27.055L37.9012 27.1736ZM37.9416 28.2929C37.9416 28.7798 37.9276 29.2124 37.9005 29.592L39.3255 29.6937C39.3555 29.2733 39.3701 28.8059 39.3701 28.2929H37.9416ZM38.5739 28.9296L37.0096 29.0154L37.0878 30.4418L38.6521 30.3561L38.5739 28.9296ZM37.0102 29.0153L36.2173 29.0582L36.2944 30.4847L37.0873 30.4418L37.0102 29.0153ZM36.2162 29.0582L35.8305 29.0797L35.9098 30.506L36.2955 30.4846L36.2162 29.0582ZM35.8305 29.0797L34.6734 29.144L34.7526 30.5703L35.9098 30.506L35.8305 29.0797ZM34.688 29.1433C33.8697 29.172 33.2358 29.2084 32.7966 29.2538L32.9436 30.6748C33.3331 30.6345 33.9278 30.5994 34.7381 30.571L34.688 29.1433ZM32.2136 29.6829L32.1493 29.8329L33.4624 30.3957L33.5267 30.2457L32.2136 29.6829ZM32.1282 29.8884C32.0491 30.1259 32.0273 30.4025 32.0273 30.6714H33.4559C33.4559 30.4547 33.477 30.3598 33.4835 30.3402L32.1282 29.8884ZM32.0273 30.6714C32.0273 30.9298 32.0434 31.188 32.0757 31.4457L33.4932 31.2685C33.4683 31.0691 33.4559 30.8702 33.4559 30.6714H32.0273ZM32.0764 31.4515C32.0919 31.5679 32.1094 31.6764 32.13 31.7692C32.1426 31.8257 32.1784 31.9929 32.2758 32.1391L33.4645 31.3466C33.4898 31.3846 33.5048 31.4161 33.5122 31.4327C33.5201 31.4505 33.5246 31.4635 33.5263 31.4688C33.5296 31.4785 33.5286 31.4773 33.5246 31.4593C33.5209 31.4428 33.5161 31.4183 33.5104 31.3844C33.5048 31.3507 33.4988 31.3104 33.4925 31.2627L32.0764 31.4515ZM32.785 32.4521C33.1678 32.498 33.5392 32.5214 33.8987 32.5214V31.0929C33.6011 31.0929 33.2868 31.0734 32.9552 31.0337L32.785 32.4521ZM33.8987 32.5214C34.5802 32.5214 35.1938 32.4845 35.7354 32.4071L35.5334 30.9929C35.0751 31.0584 34.5315 31.0929 33.8987 31.0929V32.5214ZM34.9842 31.9956C34.9749 31.9751 34.9909 32.0043 35.0055 32.1273C35.0189 32.2397 35.0273 32.3951 35.0273 32.6H36.4559C36.4559 32.3621 36.4464 32.1461 36.4241 31.9584C36.403 31.7815 36.3654 31.582 36.2847 31.4044L34.9842 31.9956ZM35.0273 32.6V33.0286H36.4559V32.6H35.0273ZM35.0279 32.9988L35.0065 33.5131L36.4338 33.5726L36.4552 33.0583L35.0279 32.9988ZM35.0068 33.5053L34.9854 33.9125L36.412 33.9875L36.4334 33.5804L35.0068 33.5053ZM34.9844 33.95V34.3571H36.413V33.95H34.9844ZM34.9844 34.3571C34.9844 34.6792 34.9997 35.0336 35.0294 35.4191L36.4538 35.3095C36.4263 34.9522 36.413 34.6351 36.413 34.3571H34.9844ZM35.0273 35.3643C35.0273 35.1701 35.1119 35.0179 35.2 34.9243C35.2761 34.8434 35.3496 34.8097 35.3696 34.801C35.4077 34.7843 35.4035 34.7938 35.3101 34.8055L35.4873 36.2231C35.6225 36.2062 35.7897 36.1764 35.9422 36.1098C36.0522 36.0616 36.4559 35.8561 36.4559 35.3643H35.0273ZM49.8874 26L50.6005 25.9581L50.5609 25.2857H49.8874V26ZM49.7803 29.6L49.6525 30.3028L50.3759 30.4343L50.4865 29.7075L49.7803 29.6ZM48.666 29.4714L48.6508 30.1856L48.6584 30.1857H48.666V29.4714ZM47.6589 29.45L47.6741 28.7359L47.6665 28.7357H47.6589V29.45ZM47.1017 29.5143L47.8088 29.6153L47.816 29.565V29.5143H47.1017ZM47.2089 40.9357L47.3302 41.6396L47.9342 41.5355L47.923 40.9228L47.2089 40.9357ZM43.1589 41.1929L42.5464 41.5604L42.7966 41.9774L43.2763 41.8974L43.1589 41.1929ZM43.0517 40.7643L42.3388 40.8088L42.3404 40.8339L42.3437 40.8587L43.0517 40.7643ZM43.0517 40.1429L43.7639 40.1976L43.766 40.1703V40.1429H43.0517ZM43.0517 39.0929L42.3374 39.0849V39.0929H43.0517ZM43.0732 37.1643L43.7874 37.1722V37.1643H43.0732ZM42.9017 29.5571L43.6153 29.5241L43.5951 29.0877L43.1973 28.9069L42.9017 29.5571ZM42.2374 29.45V28.7357H42.2285L42.2196 28.7359L42.2374 29.45ZM41.3803 29.4714V30.1857H41.3892L41.3982 30.1855L41.3803 29.4714ZM40.3303 29.3643L39.6914 29.6837L39.8237 29.9484L40.1044 30.0419L40.3303 29.3643ZM40.2232 28.6571L39.5108 28.7099L40.2232 28.6571ZM40.2017 25.8071V25.0929H39.5192L39.4882 25.7747L40.2017 25.8071ZM41.1232 25.8071V26.5214H41.1323L41.1415 26.5212L41.1232 25.8071ZM41.9589 25.7857V25.0714H41.9497L41.9406 25.0717L41.9589 25.7857ZM43.1589 25.7857V26.5001L43.1712 26.4999L43.1589 25.7857ZM44.4017 25.7643V25.0499L44.3894 25.0501L44.4017 25.7643ZM49.6089 26L49.5259 26.7094L49.5672 26.7143H49.6089V26ZM49.1744 26.0419C49.2022 26.5155 49.216 26.9586 49.216 27.3714H50.6446C50.6446 26.9271 50.6298 26.4559 50.6005 25.9581L49.1744 26.0419ZM49.216 27.3714C49.216 28.1724 49.1676 28.8784 49.0741 29.4925L50.4865 29.7075C50.593 29.0073 50.6446 28.2276 50.6446 27.3714H49.216ZM49.9081 28.8972C49.4212 28.8087 49.0009 28.7571 48.666 28.7571V30.1857C48.874 30.1857 49.1965 30.2199 49.6525 30.3028L49.9081 28.8972ZM48.6812 28.7573L47.6741 28.7359L47.6437 30.1641L48.6508 30.1856L48.6812 28.7573ZM47.6589 28.7357C47.4669 28.7357 47.2942 28.7409 47.1591 28.7565C47.0985 28.7635 47.0013 28.7771 46.9029 28.8112C46.857 28.8271 46.7599 28.8642 46.6616 28.9435C46.5573 29.0278 46.3874 29.2174 46.3874 29.5143H47.816C47.816 29.8005 47.6519 29.98 47.5592 30.0549C47.4726 30.1249 47.3929 30.1533 47.3702 30.1611C47.3182 30.1792 47.2907 30.1794 47.3229 30.1756C47.3735 30.1698 47.4794 30.1643 47.6589 30.1643V28.7357ZM46.3946 29.4133C46.3576 29.6726 46.3446 30.1465 46.3446 30.7786H47.7732C47.7732 30.1249 47.7887 29.756 47.8088 29.6153L46.3946 29.4133ZM46.3446 30.7786C46.3446 32.0438 46.3948 35.4372 46.4947 40.9487L47.923 40.9228C47.823 35.4057 47.7732 32.0277 47.7732 30.7786H46.3446ZM47.0875 40.2318C46.7238 40.2945 46.2804 40.3286 45.7517 40.3286V41.7571C46.3373 41.7571 46.8654 41.7198 47.3302 41.6396L47.0875 40.2318ZM45.7517 40.3286H45.1303V41.7571H45.7517V40.3286ZM45.1303 40.3286C44.3833 40.3286 43.6863 40.3808 43.0414 40.4883L43.2763 41.8974C43.8315 41.8049 44.4488 41.7571 45.1303 41.7571V40.3286ZM43.7714 40.8254C43.7905 40.8573 43.7983 40.8788 43.7987 40.88C43.7997 40.8827 43.7973 40.8767 43.7929 40.8589C43.7838 40.8224 43.772 40.7615 43.7598 40.6699L42.3437 40.8587C42.3601 40.9813 42.3804 41.099 42.407 41.2054C42.431 41.3013 42.4711 41.4349 42.5464 41.5604L43.7714 40.8254ZM43.7646 40.7197C43.752 40.5171 43.7527 40.3438 43.7639 40.1976L42.3395 40.0881C42.3222 40.3133 42.3229 40.5544 42.3388 40.8088L43.7646 40.7197ZM43.766 40.1429V39.0929H42.3374V40.1429H43.766ZM43.766 39.1008L43.7874 37.1722L42.3589 37.1563L42.3375 39.0849L43.766 39.1008ZM43.7874 37.1643C43.7874 34.5538 43.7301 32.0071 43.6153 29.5241L42.1882 29.5901C42.302 32.05 42.3589 34.5747 42.3589 37.1643H43.7874ZM43.1973 28.9069C42.9058 28.7744 42.5667 28.7357 42.2374 28.7357V30.1643C42.4796 30.1643 42.5834 30.197 42.6062 30.2074L43.1973 28.9069ZM42.2196 28.7359L41.3624 28.7574L41.3982 30.1855L42.2553 30.1641L42.2196 28.7359ZM41.3803 28.7571C40.9039 28.7571 40.6534 28.719 40.5562 28.6867L40.1044 30.0419C40.4358 30.1524 40.8853 30.1857 41.3803 30.1857V28.7571ZM40.9692 29.0448C40.9935 29.0934 40.9982 29.1222 40.9934 29.1023C40.9902 29.0896 40.9846 29.0624 40.9776 29.0162C40.9636 28.9239 40.9491 28.7887 40.9355 28.6044L39.5108 28.7099C39.5257 28.9113 39.5434 29.0868 39.5651 29.2302C39.5824 29.3442 39.6138 29.5284 39.6914 29.6837L40.9692 29.0448ZM40.9355 28.6044C40.9085 28.24 40.8946 27.8223 40.8946 27.35H39.466C39.466 27.8491 39.4807 28.3029 39.5108 28.7099L40.9355 28.6044ZM40.8946 27.35C40.8946 26.6365 40.9018 26.1363 40.9153 25.8396L39.4882 25.7747C39.4731 26.1066 39.466 26.6349 39.466 27.35H40.8946ZM40.2017 26.5214H41.1232V25.0929H40.2017V26.5214ZM41.1415 26.5212L41.9772 26.4998L41.9406 25.0717L41.1048 25.0931L41.1415 26.5212ZM41.9589 26.5H43.1589V25.0714H41.9589V26.5ZM43.1712 26.4999L44.414 26.4785L44.3894 25.0501L43.1466 25.0715L43.1712 26.4999ZM44.4017 26.4786C46.5164 26.4786 48.2215 26.5568 49.5259 26.7094L49.6919 25.2906C48.3105 25.1289 46.5443 25.05 44.4017 25.05V26.4786ZM49.6089 26.7143H49.8874V25.2857H49.6089V26.7143Z" fill="#453831"/>
<path d="M21 21L32.5 13L44 21" stroke="#E6C9BB" stroke-width="2" stroke-linecap="round"/>
<path d="M43 46L31.5 54L20 46" stroke="#E6C9BB" stroke-width="2" stroke-linecap="round"/>
<circle cx="55" cy="34" r="2" fill="#E6C9BB"/>
<circle cx="10" cy="34" r="2" fill="#E6C9BB"/>
</svg>
