<svg width="40" height="40" viewBox="0 0 40 40" fill="none" xmlns="http://www.w3.org/2000/svg">
<mask id="path-1-outside-1_507_112987" maskUnits="userSpaceOnUse" x="5.28149" y="5.28149" width="30" height="30" fill="black">
<rect fill="white" x="5.28149" y="5.28149" width="30" height="30"/>
<path fill-rule="evenodd" clip-rule="evenodd" d="M24.1788 31.2741C24.2343 32.4964 23.1893 33.4815 21.9725 33.3541L17.3849 32.8735C16.3666 32.7668 15.5933 31.9082 15.5933 30.8844L15.5933 23.6637H8.28149C7.17692 23.6637 6.28149 22.7683 6.28149 21.6637V18.1254C6.28149 17.0562 7.12253 16.176 8.19068 16.1275L15.5933 15.791L15.5933 8.28149C15.5933 7.17692 16.4887 6.28149 17.5933 6.28149L21.1316 6.28149C22.2009 6.28149 23.081 7.12253 23.1295 8.19068L23.4588 15.4335L31.2741 15.0782C32.4964 15.0227 33.4815 16.0677 33.3541 17.2846L32.8735 21.8721C32.7668 22.8905 31.9082 23.6637 30.8844 23.6637H23.8329L24.1788 31.2741Z"/>
</mask>
<path fill-rule="evenodd" clip-rule="evenodd" d="M24.1788 31.2741C24.2343 32.4964 23.1893 33.4815 21.9725 33.3541L17.3849 32.8735C16.3666 32.7668 15.5933 31.9082 15.5933 30.8844L15.5933 23.6637H8.28149C7.17692 23.6637 6.28149 22.7683 6.28149 21.6637V18.1254C6.28149 17.0562 7.12253 16.176 8.19068 16.1275L15.5933 15.791L15.5933 8.28149C15.5933 7.17692 16.4887 6.28149 17.5933 6.28149L21.1316 6.28149C22.2009 6.28149 23.081 7.12253 23.1295 8.19068L23.4588 15.4335L31.2741 15.0782C32.4964 15.0227 33.4815 16.0677 33.3541 17.2846L32.8735 21.8721C32.7668 22.8905 31.9082 23.6637 30.8844 23.6637H23.8329L24.1788 31.2741Z" fill="#FCDDCE"/>
<path d="M21.9725 33.3541L21.8683 34.3486L21.8683 34.3486L21.9725 33.3541ZM24.1788 31.2741L25.1778 31.2287L25.1778 31.2287L24.1788 31.2741ZM17.3849 32.8735L17.2807 33.868L17.2807 33.868L17.3849 32.8735ZM15.5933 30.8844L16.5933 30.8844L16.5933 30.8844L15.5933 30.8844ZM15.5933 23.6637L16.5933 23.6637L16.5933 22.6637H15.5933V23.6637ZM8.19068 16.1275L8.23609 17.1265L8.19068 16.1275ZM15.5933 15.791L15.6387 16.79L16.5933 16.7466L16.5933 15.791L15.5933 15.791ZM15.5933 8.28149L14.5933 8.28149L14.5933 8.28149L15.5933 8.28149ZM17.5933 6.28149L17.5933 7.28149L17.5933 6.28149ZM21.1316 6.28149L21.1316 5.28149L21.1316 6.28149ZM23.1295 8.19068L24.1285 8.14527L24.1285 8.14527L23.1295 8.19068ZM23.4588 15.4335L22.4598 15.4789L22.5052 16.4779L23.5042 16.4324L23.4588 15.4335ZM31.2741 15.0782L31.2287 14.0793L31.2287 14.0793L31.2741 15.0782ZM33.3541 17.2846L34.3486 17.3887L34.3486 17.3887L33.3541 17.2846ZM32.8735 21.8721L33.868 21.9763L33.868 21.9763L32.8735 21.8721ZM23.8329 23.6637V22.6637H22.7864L22.8339 23.7092L23.8329 23.6637ZM21.8683 34.3486C23.6935 34.5398 25.2611 33.0621 25.1778 31.2287L23.1798 31.3195C23.2076 31.9307 22.6851 32.4233 22.0767 32.3595L21.8683 34.3486ZM17.2807 33.868L21.8683 34.3486L22.0767 32.3595L17.4891 31.8789L17.2807 33.868ZM14.5933 30.8844C14.5933 32.4202 15.7532 33.708 17.2807 33.868L17.4891 31.8789C16.9799 31.8256 16.5933 31.3963 16.5933 30.8844H14.5933ZM14.5933 23.6637L14.5933 30.8844L16.5933 30.8844L16.5933 23.6637L14.5933 23.6637ZM8.28149 24.6637H15.5933V22.6637H8.28149V24.6637ZM5.28149 21.6637C5.28149 23.3206 6.62464 24.6637 8.28149 24.6637V22.6637C7.72921 22.6637 7.28149 22.216 7.28149 21.6637H5.28149ZM5.28149 18.1254V21.6637H7.28149V18.1254H5.28149ZM8.14527 15.1285C6.54304 15.2013 5.28149 16.5215 5.28149 18.1254H7.28149C7.28149 17.5908 7.70201 17.1507 8.23609 17.1265L8.14527 15.1285ZM15.5479 14.792L8.14527 15.1285L8.23609 17.1265L15.6387 16.79L15.5479 14.792ZM14.5933 8.28149L14.5933 15.791L16.5933 15.791L16.5933 8.28149L14.5933 8.28149ZM17.5933 5.28149C15.9364 5.28149 14.5933 6.62464 14.5933 8.28149H16.5933C16.5933 7.72921 17.041 7.28149 17.5933 7.28149L17.5933 5.28149ZM21.1316 5.28149L17.5933 5.28149L17.5933 7.28149L21.1316 7.28149L21.1316 5.28149ZM24.1285 8.14527C24.0557 6.54304 22.7355 5.28149 21.1316 5.28149L21.1316 7.28149C21.6662 7.28149 22.1063 7.70201 22.1306 8.23609L24.1285 8.14527ZM24.4577 15.3881L24.1285 8.14527L22.1306 8.23609L22.4598 15.4789L24.4577 15.3881ZM31.2287 14.0793L23.4133 14.4345L23.5042 16.4324L31.3195 16.0772L31.2287 14.0793ZM34.3486 17.3887C34.5398 15.5635 33.062 13.9959 31.2287 14.0793L31.3195 16.0772C31.9307 16.0494 32.4233 16.572 32.3595 17.1804L34.3486 17.3887ZM33.868 21.9763L34.3486 17.3887L32.3595 17.1804L31.8789 21.7679L33.868 21.9763ZM30.8844 24.6637C32.4202 24.6637 33.708 23.5038 33.868 21.9763L31.8789 21.7679C31.8256 22.2771 31.3963 22.6637 30.8844 22.6637V24.6637ZM23.8329 24.6637H30.8844V22.6637H23.8329V24.6637ZM25.1778 31.2287L24.8318 23.6183L22.8339 23.7092L23.1798 31.3195L25.1778 31.2287Z" fill="#453831" mask="url(#path-1-outside-1_507_112987)"/>
</svg>
