<svg width="64" height="64" viewBox="0 0 64 64" fill="none" xmlns="http://www.w3.org/2000/svg">
<path d="M64 32C64 49.672 49.672 64 32 64C14.328 64 0 49.672 0 32C0 14.328 14.328 0 32 0C49.672 0 64 14.328 64 32Z" fill="#FCDDCE"/>
<path fill-rule="evenodd" clip-rule="evenodd" d="M32 61.3333C48.1992 61.3333 61.3333 48.1992 61.3333 32C61.3333 15.8008 48.1992 2.66667 32 2.66667C15.8008 2.66667 2.66667 15.8008 2.66667 32C2.66667 48.1992 15.8008 61.3333 32 61.3333ZM32 64C49.672 64 64 49.672 64 32C64 14.328 49.672 0 32 0C14.328 0 0 14.328 0 32C0 49.672 14.328 64 32 64Z" fill="#453831"/>
<path fill-rule="evenodd" clip-rule="evenodd" d="M19.2908 16H44.9079C45.8142 16 46.7198 16.1329 47.6663 16.5742C48.8008 17.103 49.4024 17.9366 49.8239 18.553C49.8567 18.601 49.8873 18.6504 49.9157 18.701C50.4113 19.5831 50.6667 20.5356 50.6667 21.5603C50.6667 22.5336 50.4351 23.5943 49.9157 24.5187C49.9108 24.5276 49.9058 24.5364 49.9007 24.5451L33.7162 52.3466C33.3593 52.9598 32.7024 53.3359 31.993 53.3333C31.2836 53.3309 30.6293 52.95 30.2768 52.3344L14.3895 24.5922C14.385 24.5847 14.3804 24.5772 14.3758 24.5696C14.0122 23.9706 13.45 23.0439 13.3516 21.8482C13.2612 20.7486 13.5084 19.6471 14.0608 18.6917C14.6133 17.7363 15.4451 16.9725 16.4455 16.505C17.5182 16.0039 18.6052 16 19.2908 16ZM30.0142 19.9715H19.2908C18.5863 19.9715 18.3158 20.0149 18.1268 20.1033C17.8653 20.2255 17.6457 20.4261 17.4989 20.6799C17.3521 20.9339 17.2857 21.2282 17.3099 21.5228C17.3237 21.6916 17.3926 21.8847 17.7986 22.5544C17.8071 22.5684 17.8154 22.5826 17.8235 22.5969L30.0142 43.8841V19.9715ZM33.9858 19.9715V43.9891L46.4589 22.563C46.5996 22.3072 46.6951 21.9378 46.6951 21.5603C46.6951 21.254 46.6316 20.9881 46.4897 20.714C46.3408 20.4999 46.2501 20.3865 46.1742 20.3088C46.1091 20.2424 46.059 20.2069 45.9883 20.1739C45.6933 20.0364 45.3916 19.9715 44.9079 19.9715H33.9858Z" fill="#453831"/>
</svg>
